<?xml version="1.0" encoding="utf-8"?>
<!-- Generator: Adobe Illustrator 15.0.2, SVG Export Plug-In . SVG Version: 6.00 Build 0)  -->
<!DOCTYPE svg PUBLIC "-//W3C//DTD SVG 1.1//EN" "http://www.w3.org/Graphics/SVG/1.1/DTD/svg11.dtd">
<svg version="1.1" id="Layer_1" xmlns="http://www.w3.org/2000/svg" xmlns:xlink="http://www.w3.org/1999/xlink" x="0px" y="0px"
	 width="236.028px" height="60.359px" viewBox="0 0 236.028 60.359" enable-background="new 0 0 236.028 60.359"
	 xml:space="preserve">
<g id="C2pelD_1_">
	
		<image display="none" overflow="visible" width="236" height="61" id="C2pelD" xlink:href="94C83A86.jpg"  transform="matrix(1 0 0 1 -0.3062 -0.5264)">
	</image>
	<g>
		<path fill="#F6ECE2" d="M0,0.686h12.935c6.762,0,12.837,2.597,12.837,8.819c0,3.822-2.156,5.831-2.989,6.615
			c-2.106,2.009-5.242,2.891-10.387,2.891c-1.176,0-2.106-0.049-3.283-0.147v8.917c0,3.577,0.833,4.312,4.606,4.409v0.931H0V32.19
			c4.116-0.294,4.116-1.42,4.116-4.948V6.026c0-3.479-0.539-4.067-4.116-4.41V0.686z M9.113,16.903
			c0.931,0.098,1.911,0.147,2.94,0.147c1.813,0,8.378,0,8.378-7.447c0-7.006-7.153-7.104-9.309-7.104
			c-1.47,0-2.009,0.049-2.009,1.666V16.903z"/>
		<path fill="#F6ECE2" d="M57.034,33.121H44.54V32.19c1.813,0,3.43-0.049,3.43-1.862c0-0.784-0.637-2.4-0.931-3.086l-2.009-4.704
			H32.192l-2.253,5.732c-0.245,0.637-0.392,1.323-0.392,1.862c0,2.058,2.303,2.058,3.332,2.058v0.931h-9.701V32.19
			c0.784-0.049,1.617-0.147,2.499-1.078c1.127-1.225,2.646-4.802,3.577-6.958L39.444,0.098h0.98l12.2,27.83
			c1.568,3.577,2.254,4.115,4.41,4.262V33.121z M44.344,20.529L38.66,7.055l-5.635,13.474H44.344z"/>
		<path fill="#F6ECE2" d="M92.95,1.617c-3.087,0.343-4.655,0.539-4.655,6.271V33.66h-0.833L65.904,6.81h-0.098v19.108
			c0,5.047,1.029,6.125,4.605,6.271v0.931H58.897V32.19c3.724-0.245,4.752-0.979,4.752-6.271V4.312
			c-2.009-2.45-2.792-2.695-4.752-2.695V0.686h8.378l18.766,23.567h0.098V7.888c0-5.635-1.372-6.026-4.704-6.271V0.686H92.95V1.617z
			"/>
		<path fill="#F6ECE2" d="M95.843,16.953C95.843,5.684,103.83,0,111.865,0s16.021,5.684,16.021,16.953
			c0,10.436-7.153,16.854-16.021,16.854S95.843,27.389,95.843,16.953z M122.3,16.903c0-11.171-5.438-15.14-10.436-15.14
			c-4.998,0-10.437,3.969-10.437,15.14c0,10.779,4.998,15.14,10.437,15.14S122.3,27.683,122.3,16.903z"/>
		<path fill="#F6ECE2" d="M130.828,0.686h12.936c6.762,0,12.837,2.597,12.837,8.819c0,3.822-2.156,5.831-2.989,6.615
			c-2.106,2.009-5.242,2.891-10.387,2.891c-1.176,0-2.106-0.049-3.283-0.147v8.917c0,3.577,0.833,4.312,4.606,4.409v0.931h-13.72
			V32.19c4.116-0.294,4.116-1.42,4.116-4.948V6.026c0-3.479-0.539-4.067-4.116-4.41V0.686z M139.941,16.903
			c0.932,0.098,1.911,0.147,2.94,0.147c1.812,0,8.378,0,8.378-7.447c0-7.006-7.153-7.104-9.309-7.104
			c-1.471,0-2.01,0.049-2.01,1.666V16.903z"/>
		<path fill="#F6ECE2" d="M179.924,33.121h-14.307V32.19c4.458-0.196,4.605-1.323,4.605-4.948V2.744h-2.646
			c-5.39,0-6.713,0.931-7.791,6.271h-1.176l0.294-8.33h27.634l0.294,8.33h-1.176c-1.029-5.39-2.4-6.271-7.79-6.271h-2.646v25.037
			c0,3.332,0.588,4.262,4.704,4.409V33.121z"/>
		<path fill="#F6ECE2" d="M189.088,32.19c4.165-0.098,4.753-0.931,4.753-4.409V6.026c0-3.626-0.686-4.214-4.753-4.41V0.686h14.552
			v0.931c-3.576,0.147-4.802,0.49-4.802,4.41v21.754c0,3.821,1.176,4.312,4.802,4.409v0.931h-14.552V32.19z"/>
		<path fill="#F6ECE2" d="M234.264,11.024c-1.226-5.145-4.753-9.064-10.779-9.064c-2.45,0-5.292,0.98-7.35,2.989
			c-1.911,1.862-4.066,4.998-4.066,12.053c0,10.387,5.83,14.65,12.004,14.65c6.026,0,9.554-3.479,11.073-4.949l0.882,0.882
			c-0.049,0.098-4.263,6.223-13.278,6.223c-7.888,0-16.364-4.704-16.364-16.904C206.385,5.928,214.617,0,223.043,0
			c4.361,0,7.546,1.617,8.623,1.617c0.245,0,1.862,0,2.254-1.617h1.029l0.441,11.024H234.264z"/>
		<path fill="#F6ECE2" d="M23.469,60.121h-4.335v-0.323c0.629,0,1.19-0.017,1.19-0.646c0-0.272-0.221-0.833-0.323-1.071
			l-0.697-1.632h-4.454l-0.782,1.989c-0.085,0.221-0.136,0.459-0.136,0.646c0,0.714,0.799,0.714,1.156,0.714v0.323h-3.366v-0.323
			c0.272-0.017,0.561-0.051,0.867-0.374c0.391-0.425,0.917-1.666,1.241-2.414l3.536-8.346h0.34l4.233,9.655
			c0.544,1.241,0.782,1.428,1.53,1.479V60.121z M19.066,55.752l-1.972-4.674l-1.955,4.674H19.066z"/>
		<path fill="#F6ECE2" d="M34.961,49.191c-1.309,0.136-1.598,0.391-1.598,2.176v4.437c0,1.36,0,4.555-4.402,4.555
			c-4.215,0-4.215-3.314-4.215-4.334v-5.303c0-1.258-0.238-1.445-1.53-1.53v-0.323h4.811v0.323c-1.343,0.102-1.547,0.323-1.547,1.53
			v5.439c0,1.088,0,3.451,2.958,3.451c1.326,0,2.294-0.544,2.788-1.343c0.221-0.374,0.391-0.935,0.391-2.312v-4.589
			c0-1.819-0.408-2.108-1.598-2.176v-0.323h3.944V49.191z"/>
		<path fill="#F6ECE2" d="M43.104,60.121h-4.963v-0.323c1.547-0.068,1.598-0.459,1.598-1.717v-8.499H38.82
			c-1.87,0-2.329,0.323-2.703,2.176H35.71l0.102-2.89h9.587l0.102,2.89h-0.408c-0.357-1.87-0.833-2.176-2.703-2.176h-0.918v8.686
			c0,1.156,0.204,1.479,1.632,1.53V60.121z"/>
		<path fill="#F6ECE2" d="M46.25,54.512c0-3.91,2.771-5.881,5.558-5.881c2.788,0,5.559,1.972,5.559,5.881
			c0,3.621-2.482,5.847-5.559,5.847S46.25,58.132,46.25,54.512z M55.429,54.495c0-3.875-1.887-5.252-3.621-5.252
			s-3.621,1.377-3.621,5.252c0,3.74,1.734,5.252,3.621,5.252C53.695,59.747,55.429,58.234,55.429,54.495z"/>
		<path fill="#F6ECE2" d="M72.785,49.191c-1.071,0.085-1.479,0.187-1.479,1.53v7.547c0,1.309,0.391,1.462,1.479,1.53v0.323h-4.759
			v-0.323c1.326-0.068,1.547-0.323,1.547-1.717v-7.632h-0.034l-4.317,9.672h-0.238L60.75,50.84h-0.034v6.783
			c0,1.75,0.357,2.125,1.598,2.176v0.323H58.32v-0.323c1.292-0.085,1.649-0.34,1.649-2.176v-6.901c0-1.326-0.357-1.462-1.615-1.53
			v-0.323h3.366l3.927,8.584l3.756-8.584h3.383V49.191z"/>
		<path fill="#F6ECE2" d="M85.399,60.121h-4.335v-0.323c0.629,0,1.19-0.017,1.19-0.646c0-0.272-0.221-0.833-0.323-1.071
			l-0.697-1.632h-4.454l-0.782,1.989c-0.085,0.221-0.136,0.459-0.136,0.646c0,0.714,0.799,0.714,1.156,0.714v0.323h-3.366v-0.323
			c0.272-0.017,0.561-0.051,0.867-0.374c0.391-0.425,0.918-1.666,1.241-2.414l3.536-8.346h0.34l4.232,9.655
			c0.544,1.241,0.782,1.428,1.53,1.479V60.121z M80.997,55.752l-1.972-4.674l-1.955,4.674H80.997z"/>
		<path fill="#F6ECE2" d="M91.639,60.121h-4.963v-0.323c1.547-0.068,1.598-0.459,1.598-1.717v-8.499h-0.917
			c-1.87,0-2.329,0.323-2.703,2.176h-0.408l0.102-2.89h9.587l0.102,2.89h-0.408c-0.357-1.87-0.833-2.176-2.703-2.176h-0.918v8.686
			c0,1.156,0.204,1.479,1.632,1.53V60.121z"/>
		<path fill="#F6ECE2" d="M94.818,59.798c1.445-0.034,1.648-0.323,1.648-1.53v-7.547c0-1.258-0.237-1.462-1.648-1.53v-0.323h5.049
			v0.323c-1.241,0.051-1.666,0.17-1.666,1.53v7.547c0,1.326,0.408,1.496,1.666,1.53v0.323h-5.049V59.798z"/>
		<path fill="#F6ECE2" d="M100.921,54.512c0-3.91,2.771-5.881,5.558-5.881c2.788,0,5.559,1.972,5.559,5.881
			c0,3.621-2.481,5.847-5.559,5.847C103.403,60.359,100.921,58.132,100.921,54.512z M110.1,54.495c0-3.875-1.887-5.252-3.621-5.252
			c-1.733,0-3.62,1.377-3.62,5.252c0,3.74,1.733,5.252,3.62,5.252S110.1,58.234,110.1,54.495z"/>
		<path fill="#F6ECE2" d="M124.804,49.191c-1.07,0.119-1.614,0.187-1.614,2.176v8.941h-0.289l-7.479-9.315h-0.034v6.629
			c0,1.75,0.357,2.125,1.599,2.176v0.323h-3.995v-0.323c1.292-0.085,1.649-0.34,1.649-2.176v-7.497
			c-0.697-0.85-0.97-0.935-1.649-0.935v-0.323h2.907l6.51,8.176h0.034v-5.677c0-1.955-0.476-2.091-1.632-2.176v-0.323h3.994V49.191z
			"/>
		<path fill="#F6ECE2" d="M137.623,52.251h-0.425c-0.289-1.394-1.377-2.924-3.162-2.924c-0.85,0-1.717,0.527-1.717,1.581
			c0,2.55,5.678,2.89,5.678,6.374c0,1.445-1.156,3.077-3.587,3.077c-1.292,0-2.125-0.578-2.635-0.578
			c-0.357,0-0.527,0.289-0.527,0.561h-0.374l-0.51-3.604h0.392c0.322,0.799,1.189,3.009,3.484,3.009c1.359,0,2.04-0.969,2.04-1.887
			c0-0.969-0.272-1.547-2.771-3.009c-1.563-0.901-2.651-1.649-2.651-3.332c0-1.938,1.547-2.89,3.077-2.89
			c1.02,0,1.938,0.578,2.362,0.578c0.476,0,0.561-0.391,0.595-0.578h0.357L137.623,52.251z"/>
		<path fill="#F6ECE2" d="M139.85,54.512c0-3.91,2.771-5.881,5.559-5.881s5.559,1.972,5.559,5.881c0,3.621-2.482,5.847-5.559,5.847
			C142.332,60.359,139.85,58.132,139.85,54.512z M149.029,54.495c0-3.875-1.887-5.252-3.62-5.252c-1.734,0-3.621,1.377-3.621,5.252
			c0,3.74,1.734,5.252,3.621,5.252S149.029,58.234,149.029,54.495z"/>
		<path fill="#F6ECE2" d="M156.713,49.191c-1.155,0.068-1.581,0.187-1.581,1.53v8.04c0,0.68,0.307,0.697,1.717,0.697
			c2.55,0,3.638-0.068,4.607-2.294h0.425l-0.816,2.958h-9.145v-0.323c1.088-0.068,1.479-0.221,1.479-1.53v-7.547
			c0-1.343-0.408-1.445-1.479-1.53v-0.323h4.793V49.191z"/>
		<path fill="#F6ECE2" d="M174.257,49.191c-1.31,0.136-1.599,0.391-1.599,2.176v4.437c0,1.36,0,4.555-4.402,4.555
			c-4.216,0-4.216-3.314-4.216-4.334v-5.303c0-1.258-0.237-1.445-1.529-1.53v-0.323h4.811v0.323
			c-1.343,0.102-1.547,0.323-1.547,1.53v5.439c0,1.088,0,3.451,2.958,3.451c1.325,0,2.294-0.544,2.787-1.343
			c0.222-0.374,0.392-0.935,0.392-2.312v-4.589c0-1.819-0.408-2.108-1.599-2.176v-0.323h3.944V49.191z"/>
		<path fill="#F6ECE2" d="M182.4,60.121h-4.964v-0.323c1.547-0.068,1.598-0.459,1.598-1.717v-8.499h-0.918
			c-1.869,0-2.328,0.323-2.702,2.176h-0.408l0.103-2.89h9.587l0.102,2.89h-0.408c-0.356-1.87-0.833-2.176-2.702-2.176h-0.918v8.686
			c0,1.156,0.204,1.479,1.632,1.53V60.121z"/>
		<path fill="#F6ECE2" d="M185.58,59.798c1.445-0.034,1.648-0.323,1.648-1.53v-7.547c0-1.258-0.237-1.462-1.648-1.53v-0.323h5.049
			v0.323c-1.241,0.051-1.666,0.17-1.666,1.53v7.547c0,1.326,0.408,1.496,1.666,1.53v0.323h-5.049V59.798z"/>
		<path fill="#F6ECE2" d="M191.682,54.512c0-3.91,2.771-5.881,5.559-5.881c2.787,0,5.559,1.972,5.559,5.881
			c0,3.621-2.482,5.847-5.559,5.847C194.164,60.359,191.682,58.132,191.682,54.512z M200.861,54.495c0-3.875-1.887-5.252-3.62-5.252
			c-1.734,0-3.621,1.377-3.621,5.252c0,3.74,1.734,5.252,3.621,5.252S200.861,58.234,200.861,54.495z"/>
		<path fill="#F6ECE2" d="M215.566,49.191c-1.07,0.119-1.614,0.187-1.614,2.176v8.941h-0.289l-7.479-9.315h-0.034v6.629
			c0,1.75,0.357,2.125,1.598,2.176v0.323h-3.994v-0.323c1.292-0.085,1.648-0.34,1.648-2.176v-7.497
			c-0.696-0.85-0.969-0.935-1.648-0.935v-0.323h2.906l6.511,8.176h0.034v-5.677c0-1.955-0.477-2.091-1.632-2.176v-0.323h3.994
			V49.191z"/>
		<path fill="#F6ECE2" d="M223.964,52.251h-0.426c-0.289-1.394-1.377-2.924-3.161-2.924c-0.85,0-1.717,0.527-1.717,1.581
			c0,2.55,5.677,2.89,5.677,6.374c0,1.445-1.155,3.077-3.586,3.077c-1.292,0-2.125-0.578-2.635-0.578
			c-0.357,0-0.527,0.289-0.527,0.561h-0.374l-0.51-3.604h0.391c0.323,0.799,1.19,3.009,3.485,3.009c1.359,0,2.039-0.969,2.039-1.887
			c0-0.969-0.271-1.547-2.771-3.009c-1.563-0.901-2.651-1.649-2.651-3.332c0-1.938,1.547-2.89,3.076-2.89
			c1.021,0,1.938,0.578,2.363,0.578c0.476,0,0.561-0.391,0.595-0.578h0.357L223.964,52.251z"/>
	</g>
</g>
</svg>
