<?xml version="1.0" encoding="UTF-8" standalone="no"?>
<!DOCTYPE svg  PUBLIC '-//W3C//DTD SVG 1.1//EN'  'http://www.w3.org/Graphics/SVG/1.1/DTD/svg11.dtd'>
<svg xmlns="http://www.w3.org/2000/svg">
<defs>
<font id="BemboStd-Regular" horiz-adv-x="521">
<font-face underline-position="-50" font-weight="400" descent="-200" panose-1="2 2 6 5 6 3 6 2 10 3" units-per-em="1000" unicode-range="U+0020-25CA" bbox="-206 -233 1006 896" x-height="396" underline-thickness="50" font-family="BemboStd" ascent="800" cap-height="622"/>
<missing-glyph horiz-adv-x="1000"/>
<glyph glyph-name=".notdef" horiz-adv-x="1000"/>
<glyph glyph-name=".null" horiz-adv-x="0"/>
<glyph glyph-name="nonmarkingreturn" horiz-adv-x="333"/>
<glyph glyph-name="space" horiz-adv-x="278" unicode=" "/>
<glyph glyph-name="exclam" horiz-adv-x="260" unicode="!" d="M79 35q0 21 14.5 34t36.5 13t36.5 -13t14.5 -34q0 -22 -14.5 -34.5t-36.5 -12.5t-36.5 13t-14.5 34zM140 178h-20l-37 450q-1 14 4 18t21 4h45q25 0 25 -16q0 -1 -0.5 -3.5t-0.5 -4.5z"/>
<glyph glyph-name="quotedbl" horiz-adv-x="406" unicode='&quot;' d="M292 637q22 0 35.5 -15t13.5 -38q0 -16 -12 -88l-25 -144h-24l-25 144q-12 72 -12 88q0 23 13.5 38t35.5 15zM114 637q22 0 35.5 -15t13.5 -38q0 -16 -12 -88l-25 -144h-24l-25 144q-12 72 -12 88q0 23 13.5 38t35.5 15z"/>
<glyph glyph-name="numbersign" horiz-adv-x="668" unicode="#" d="M243 421l-41 -198h222l41 198h-222zM46 464h164l42 203h43l-42 -203h221l43 203h43l-43 -203h104v-43h-113l-41 -198h154v-43h-162l-43 -203h-43l43 203h-223l-43 -203h-43l43 203h-104v43h113l41 198h-154v43z"/>
<glyph glyph-name="dollar" horiz-adv-x="458" unicode="$" d="M276 234v-220q82 36 82 110q0 32 -17 54.5t-65 55.5zM183 293v-279q19 -8 47 -8q3 0 9.5 0.5t10.5 0.5v240zM157 399v167q-26 -9 -42 -29.5t-16 -45.5q0 -49 58 -92zM183 570v-188l67 -47v228q-15 9 -39 9q-12 0 -28 -2zM157 -6q-54 11 -92.5 42.5t-38.5 66.5 q0 13 10 23.5t23 10.5q17 0 27 -14t14.5 -32t19 -39t37.5 -31v285q-58 36 -85.5 70.5t-27.5 79.5t31 80.5t82 50.5v65h26v-62q11 2 33 2q23 0 34 -2v62h26v-65q55 -16 86 -39.5t31 -48.5q0 -13 -8.5 -22t-20.5 -9q-14 0 -24.5 11t-27 34.5t-36.5 40.5v-231q84 -53 113 -89 t29 -86q0 -56 -36.5 -96t-105.5 -58v-96h-26v89q-8 -1 -27 -1q-18 0 -40 2v-90h-26v96z"/>
<glyph glyph-name="percent" horiz-adv-x="719" unicode="%" d="M137 -27h-42l486 681h41zM79 468q0 -154 72 -154q73 0 73 154t-73 154q-72 0 -72 -154zM23 468q0 71 37 120t91 49t91.5 -49t37.5 -120t-37.5 -120t-91.5 -49t-91 49t-37 120zM495 162q0 -154 72 -154q73 0 73 154t-73 154q-72 0 -72 -154zM439 162q0 71 37 120t91 49 t91.5 -49t37.5 -120t-37.5 -120t-91.5 -49t-91 49t-37 120z"/>
<glyph glyph-name="ampersand" horiz-adv-x="729" unicode="&amp;" d="M347 479q0 38 -20 61t-53 23q-31 0 -48.5 -19.5t-17.5 -52.5q0 -64 74 -120q65 38 65 108zM123 163q0 -57 33.5 -92t87.5 -35q43 0 93.5 26t82.5 65q-67 113 -190 198q-57 -40 -82 -77.5t-25 -84.5zM539 418h177v-18q-41 0 -57.5 -4t-27.5 -15q-5 -5 -54 -83.5 t-96 -132.5q13 -20 28.5 -47t24 -41.5t20 -29t22.5 -21t25 -6.5q29 0 78 34l9 -16q-66 -52 -123 -52q-45 0 -68 22.5t-66 101.5q-116 -124 -228 -124q-68 0 -115 47.5t-47 117.5q0 62 40.5 105t134.5 81q-71 61 -71 130q0 52 37 84t99 32q56 0 91.5 -27t35.5 -70 q0 -71 -113 -127q102 -69 174 -177q42 52 83.5 116t41.5 82q0 11 -11.5 15.5t-43.5 4.5v18z"/>
<glyph glyph-name="quotesingle" horiz-adv-x="177" unicode="&apos;" d="M89 637q22 0 35.5 -15t13.5 -38q0 -16 -12 -88l-25 -144h-24l-25 144q-12 72 -12 88q0 23 13.5 38t35.5 15z"/>
<glyph glyph-name="parenleft" horiz-adv-x="302" unicode="(" d="M140 222q0 -124 35.5 -215.5t115.5 -197.5l-28 -25q-89 110 -133.5 211.5t-44.5 226.5t44.5 226.5t133.5 211.5l28 -25q-80 -106 -115.5 -197.5t-35.5 -215.5z"/>
<glyph glyph-name="parenright" horiz-adv-x="302" unicode=")" d="M162 222q0 124 -35.5 215.5t-115.5 197.5l28 25q89 -110 133.5 -211.5t44.5 -226.5t-44.5 -226.5t-133.5 -211.5l-28 25q80 106 115.5 197.5t35.5 215.5z"/>
<glyph glyph-name="asterisk" horiz-adv-x="510" unicode="*" d="M255 343l-124 -116l-26 18l75 158l-153 84l8 28l172 -22l34 170h31l31 -170l172 22l9 -28l-153 -84l76 -158l-27 -18z"/>
<glyph glyph-name="plus" horiz-adv-x="667" unicode="+" d="M355 342h241v-44h-241v-241h-44v241h-240v44h240v240h44v-240z"/>
<glyph glyph-name="comma" horiz-adv-x="260" unicode="," d="M81 -148l-7 18q77 45 77 100q0 21 -14 21q-2 0 -6 -0.5t-5 -0.5q-8 -2 -13 -2q-19 0 -32 13t-13 32q0 20 16 34.5t38 14.5q30 0 50 -23.5t20 -59.5q0 -47 -31 -87.5t-80 -59.5z"/>
<glyph glyph-name="hyphen" horiz-adv-x="396" unicode="-" d="M35 221h326v-50h-326v50z"/>
<glyph glyph-name="period" horiz-adv-x="260" unicode="." d="M130 82q22 0 36.5 -13t14.5 -34q0 -22 -14.5 -34.5t-36.5 -12.5t-36.5 13t-14.5 34t14.5 34t36.5 13z"/>
<glyph glyph-name="slash" horiz-adv-x="458" unicode="/" d="M369 637h43l-323 -651h-43z"/>
<glyph glyph-name="zero" horiz-adv-x="490" unicode="0" d="M378 311q0 72 -5.5 123.5t-19.5 95.5t-41 66t-67 22q-38 0 -64.5 -22t-41 -64t-21 -95.5t-6.5 -125.5q0 -154 30 -230t103 -76q76 0 104.5 76.5t28.5 229.5zM453 311q0 -137 -61 -231t-147 -94q-82 0 -145 92t-63 233q0 138 62 232t146 94q87 0 147.5 -97t60.5 -229z"/>
<glyph glyph-name="one" horiz-adv-x="490" unicode="1" d="M254 637h35v-580q0 -23 7 -30.5t30 -7.5h56v-19h-252v19h54q23 0 30.5 8t7.5 31v499q-59 -52 -125 -82l-8 14q43 29 95 75.5t70 72.5z"/>
<glyph glyph-name="two" horiz-adv-x="490" unicode="2" d="M30 0v16q35 45 98 108t107 106t78.5 102t34.5 114q0 56 -38 95t-94 39q-53 0 -96.5 -37t-60.5 -98h-16q9 86 65 139t137 53q79 0 131.5 -50.5t52.5 -126.5q0 -88 -72 -160q-8 -8 -45 -37.5t-95.5 -82t-122.5 -118.5h263q39 0 52 14.5t24 63.5h16l-19 -140h-400z"/>
<glyph glyph-name="three" horiz-adv-x="490" unicode="3" d="M184 306l-9 14q71 59 103.5 97.5t32.5 76.5t-28.5 65t-68.5 27q-38 0 -75 -27t-58 -71l-18 7q25 65 75.5 103.5t109.5 38.5q55 0 92.5 -32t37.5 -79q0 -80 -103 -141l2 -2q3 0 7 0.5t7 0.5q63 0 105 -48.5t42 -115.5q0 -93 -76 -163.5t-177 -70.5q-61 0 -106 21t-45 50 q0 13 9.5 23.5t21.5 10.5q18 0 41.5 -19.5t52.5 -39t60 -19.5q58 0 101 53.5t43 127.5q0 59 -31.5 99t-77.5 40q-36 0 -70 -27z"/>
<glyph glyph-name="four" horiz-adv-x="490" unicode="4" d="M291 232v310h-2l-207 -310h209zM291 182h-256v23l295 432h28v-405h100v-50h-100v-196h-67v196z"/>
<glyph glyph-name="five" horiz-adv-x="490" unicode="5" d="M88 307l14 317h237q22 0 29 13h19l-11 -78h-253l-8 -180q46 25 108 25q84 0 144.5 -60.5t60.5 -144.5q0 -91 -67.5 -152t-167.5 -61q-60 0 -103 18.5t-43 44.5q0 13 9.5 22t23.5 9q26 0 64.5 -35t71.5 -35q56 0 96.5 50t40.5 118q0 69 -42 114t-107 45q-58 0 -106 -37z "/>
<glyph glyph-name="six" horiz-adv-x="490" unicode="6" d="M374 179q0 78 -32.5 123.5t-84.5 45.5q-57 0 -132 -60q-5 -23 -5 -62q0 -115 40.5 -169t95.5 -54q54 0 86 46.5t32 129.5zM380 637l11 -15q-117 -48 -180.5 -123t-80.5 -185q75 58 142 58q74 0 125.5 -54t51.5 -130q0 -83 -57.5 -142.5t-137.5 -59.5q-92 0 -150.5 72.5 t-58.5 187.5q0 139 89 243t246 148z"/>
<glyph glyph-name="seven" horiz-adv-x="490" unicode="7" d="M196 -14h-55l242 571h-275q-29 0 -40.5 -11t-15.5 -47h-15l7 123h396v-21z"/>
<glyph glyph-name="eight" horiz-adv-x="490" unicode="8" d="M361 494q0 54 -34.5 89.5t-86.5 35.5t-87.5 -33t-35.5 -80q0 -44 33.5 -77.5t126.5 -72.5q84 52 84 138zM377 142q0 49 -37 85.5t-125 76.5q-102 -56 -102 -152q0 -64 37.5 -106t94.5 -42q56 0 94 39.5t38 98.5zM421 493q0 -94 -130 -146q79 -35 114.5 -77t35.5 -100 q0 -78 -57 -131t-140 -53q-81 0 -137.5 48t-56.5 116q0 106 145 164q-137 61 -137 161q0 66 54 114t129 48t127.5 -42t52.5 -102z"/>
<glyph glyph-name="nine" horiz-adv-x="490" unicode="9" d="M116 445q0 -79 33 -124.5t84 -45.5q26 0 63.5 16.5t68.5 44.5q5 22 5 61q0 114 -40 168.5t-96 54.5q-54 0 -86 -46.5t-32 -128.5zM110 -14l-11 15q117 48 180.5 123t80.5 185q-75 -58 -142 -58q-74 0 -125.5 54t-51.5 130q0 83 57.5 142.5t137.5 59.5q92 0 150.5 -72.5 t58.5 -187.5q0 -139 -89 -243t-246 -148z"/>
<glyph glyph-name="colon" horiz-adv-x="260" unicode=":" d="M130 82q22 0 36.5 -13t14.5 -34q0 -22 -14.5 -34.5t-36.5 -12.5t-36.5 13t-14.5 34t14.5 34t36.5 13zM130 406q22 0 36.5 -13t14.5 -34q0 -22 -14.5 -34.5t-36.5 -12.5t-36.5 13t-14.5 34t14.5 34t36.5 13z"/>
<glyph glyph-name="semicolon" horiz-adv-x="260" unicode=";" d="M133 406q22 0 36.5 -13t14.5 -34q0 -22 -14.5 -34.5t-36.5 -12.5t-36.5 13t-14.5 34t14.5 34t36.5 13zM81 -148l-7 18q77 45 77 100q0 21 -14 21q-2 0 -6 -0.5t-5 -0.5q-8 -2 -13 -2q-19 0 -32 13t-13 32q0 20 16 34.5t38 14.5q30 0 50 -23.5t20 -59.5q0 -47 -31 -87.5 t-80 -59.5z"/>
<glyph glyph-name="less" horiz-adv-x="667" unicode="&lt;" d="M71 300v40l524 222v-50l-464 -192l464 -192v-50z"/>
<glyph glyph-name="equal" horiz-adv-x="667" unicode="=" d="M71 276h525v-44h-525v44zM71 457h525v-44h-525v44z"/>
<glyph glyph-name="greater" horiz-adv-x="667" unicode="&gt;" d="M596 340v-40l-524 -222v50l464 192l-464 192v50z"/>
<glyph glyph-name="question" horiz-adv-x="354" unicode="?" d="M155 82q22 0 36.5 -13t14.5 -34q0 -22 -14.5 -34.5t-36.5 -12.5t-36.5 13t-14.5 34t14.5 34t36.5 13zM138 633q74 0 123.5 -49t49.5 -128q0 -44 -13.5 -76.5t-33.5 -48t-43 -28t-43 -18.5t-33.5 -17.5t-13.5 -27.5q0 -34 38 -72h-22q-49 53 -49 103q0 32 19.5 52t47 30 t55.5 21t47.5 34t19.5 60q0 43 -28 66t-74 23q-18 0 -44 -3.5t-33 -3.5q-57 0 -57 36q0 47 87 47z"/>
<glyph glyph-name="at" horiz-adv-x="917" unicode="@" d="M516 446q-42 0 -90.5 -56t-79 -127.5t-30.5 -119.5q0 -28 17 -48.5t40 -20.5q41 0 88.5 43.5t81.5 115.5t34 143q0 31 -17 50.5t-44 19.5zM688 467l-87 -297q-16 -53 -16 -79q0 -40 38 -40q73 0 139 94.5t66 223.5q0 133 -88.5 217.5t-227.5 84.5q-94 0 -175 -40.5 t-133 -106.5t-81.5 -149t-29.5 -170q0 -172 107 -281.5t276 -109.5q133 0 235 70t157 200h28q-39 -132 -157 -216t-266 -84q-184 0 -305 123t-121 310q0 132 61.5 242t167.5 173t233 63q156 0 252.5 -93t96.5 -242q0 -57 -17 -115.5t-49 -111t-85 -85.5t-118 -33 q-75 0 -75 67q0 26 8 70l-2 2q-105 -139 -190 -139q-37 0 -63 33t-26 80q0 74 44 155t107.5 134t117.5 53q30 0 54.5 -16.5t29.5 -50.5h2l15 54z"/>
<glyph glyph-name="A" horiz-adv-x="677" unicode="A" d="M406 320l-88 233l-85 -233h173zM423 276h-207l-58 -157q-20 -54 -20 -63q0 -37 81 -37h16v-19h-231v19q49 1 66.5 17t41.5 82l182 497l-9 22h87l209 -555q15 -39 33.5 -51t57.5 -12v-19h-275v19h26q44 0 61 7t17 27q0 14 -11 41z"/>
<glyph glyph-name="B" horiz-adv-x="635" unicode="B" d="M204 343v-213q0 -57 25.5 -80t88.5 -23q91 0 130.5 46t39.5 114q0 63 -46.5 109.5t-129.5 46.5h-108zM204 609v-247h109q144 0 144 116q0 58 -39.5 96t-125.5 38q-13 0 -88 -3zM121 101v415q0 48 -14 67.5t-63 19.5h-35v19q14 0 62.5 2.5t63.5 3.5q83 3 150 3 q147 0 201 -39q61 -43 61 -111q0 -43 -32 -78t-82 -44v-2q71 -21 110 -65t39 -102q0 -32 -11.5 -63.5t-35.5 -61t-68 -47.5t-101 -18h-366v19h23q60 0 79 17t19 65z"/>
<glyph glyph-name="C" horiz-adv-x="729" unicode="C" d="M664 458h-19q-25 70 -86 112t-142 42q-124 0 -197.5 -80.5t-73.5 -208.5q0 -134 83 -224t199 -90q161 0 244 148h19q-23 -79 -64 -146q-7 1 -21 1q-21 0 -83.5 -14t-121.5 -14q-152 0 -250.5 90t-98.5 229q0 146 101 240t258 94q55 0 100.5 -10t73 -20t37.5 -10 q14 0 18 6h15z"/>
<glyph glyph-name="D" horiz-adv-x="760" unicode="D" d="M194 608v-534q0 -34 13 -44.5t69 -10.5q100 0 152.5 17t99.5 64q33 32 58 89t25 127q0 135 -80 215q-81 81 -257 81q-32 0 -80 -4zM111 92v430q0 48 -15.5 64.5t-60.5 16.5h-20v19q49 3 141 6q83 3 168 3q189 0 285 -83.5t96 -215.5q0 -59 -23 -116t-66.5 -106 t-116.5 -79.5t-164 -30.5h-320v19h17q42 0 60.5 15.5t18.5 57.5z"/>
<glyph glyph-name="E" horiz-adv-x="594" unicode="E" d="M464 415v-190h-19q-6 50 -20.5 64.5t-47.5 14.5h-169v-213q0 -33 12 -44t42 -11h154q51 0 74 23.5t42 89.5h18l-16 -149h-531v19h28q58 0 76 17.5t18 64.5v422q0 44 -16 62t-64 18h-22v19h480l8 -139h-18q-9 60 -26.5 81.5t-47.5 21.5h-211v-246h179q28 0 41 16.5 t17 58.5h19z"/>
<glyph glyph-name="F" horiz-adv-x="531" unicode="F" d="M474 415v-176h-17q-1 43 -17.5 59.5t-53.5 16.5h-185v-219q0 -44 16.5 -60.5t70.5 -16.5v-19h-243v19q47 3 60 20.5t13 77.5v392q0 53 -13 73t-62 21v19h448v-118h-17q-1 44 -19 63t-64 19h-190v-235h198q54 0 58 64h17z"/>
<glyph glyph-name="G" horiz-adv-x="740" unicode="G" d="M646 186v-139q-65 -33 -143 -48t-125 -15q-79 0 -142 28.5t-101 74.5t-58 100.5t-20 111.5q0 59 21 116.5t61.5 108t110 82t156.5 31.5q47 0 92 -8.5t73 -17t34 -8.5q15 0 23 7h14v-162h-20q-35 164 -205 164q-126 0 -196 -89t-70 -218q0 -73 24 -132t62.5 -93.5 t83 -52.5t89.5 -18q77 0 153 38v126q0 43 -17.5 59.5t-62.5 16.5h-37v18h270v-18q-38 -2 -54 -16.5t-16 -46.5z"/>
<glyph glyph-name="H" horiz-adv-x="792" unicode="H" d="M590 297h-392v-190q0 -51 15.5 -69.5t64.5 -18.5h3v-19h-251v19h6q45 0 62 15.5t17 57.5v440q0 39 -15 53.5t-57 17.5v19h238v-19q-52 0 -67.5 -18.5t-15.5 -77.5v-174h392v197q0 41 -16.5 57t-62.5 16h-19v19h257v-19q-45 -1 -60.5 -18t-15.5 -64v-415q0 -52 17 -69.5 t63 -17.5h10v-19h-283v19h31q47 0 63 17t16 58v203z"/>
<glyph glyph-name="I" horiz-adv-x="333" unicode="I" d="M288 19v-19h-243v19q46 2 60.5 19t14.5 67v426q0 40 -16 55t-59 17v19h243v-19q-49 0 -67 -16t-18 -65v-424q0 -45 17 -62t68 -17z"/>
<glyph glyph-name="J" horiz-adv-x="302" unicode="J" d="M195 530v-427q0 -151 -56.5 -243.5t-150.5 -92.5q-41 0 -69 15.5t-28 38.5q0 16 10.5 28t25.5 12q16 0 48.5 -23.5t54.5 -23.5q82 0 82 147v534q0 68 -14 88t-67 20h-11v19h253v-19q-47 -1 -62.5 -16.5t-15.5 -56.5z"/>
<glyph glyph-name="K" horiz-adv-x="698" unicode="K" d="M699 0h-293v19q65 1 65 28q0 29 -123 152q-54 54 -81 72.5t-53 18.5q-9 0 -14 -1v-187q0 -48 17 -65.5t63 -17.5h13v-19h-274v19h18q46 0 63 16.5t17 56.5v439q0 43 -18.5 57.5t-61.5 14.5h-18v19h270v-19h-9q-45 0 -62.5 -17t-17.5 -62v-216q53 5 112 64q58 58 98.5 117 t40.5 83q0 18 -14.5 24.5t-54.5 6.5v19h263v-19q-53 -1 -81 -9.5t-51 -31.5q-9 -9 -39 -53.5t-72 -96t-88 -86.5q22 -4 80 -62q62 -62 124.5 -135.5t69.5 -80.5q29 -29 111 -29v-19z"/>
<glyph glyph-name="L" horiz-adv-x="552" unicode="L" d="M544 146l-77 -146h-447v19h33q35 0 49 14t14 52v443q0 41 -16.5 58t-62.5 17h-14v19h295v-19h-37q-51 0 -66.5 -12t-15.5 -57v-461q0 -20 9 -28.5t31 -8.5h147q42 0 65.5 20t74.5 90h18z"/>
<glyph glyph-name="M" horiz-adv-x="917" unicode="M" d="M448 0h-23l-255 533h-2l-27 -450v-6q0 -32 21 -44t59 -14v-19h-208v19q54 0 68.5 19t18.5 88l24 389q1 12 1 32q0 31 -11.5 42.5t-49.5 13.5v18h151l241 -504l240 504h147v-18q-42 -3 -54.5 -9t-11.5 -30l32 -453q4 -67 17 -79.5t70 -12.5v-19h-257v19q89 0 89 60v6 l-29 448h-2z"/>
<glyph glyph-name="N" horiz-adv-x="813" unicode="N" d="M705 -7h-26l-518 542v-429q0 -54 19 -70.5t82 -16.5v-19h-232v19h4q45 0 63.5 16t18.5 51v492q-34 24 -84 25v19h157l471 -491v398q0 45 -18.5 58.5t-79.5 15.5v19h234v-19q-55 0 -73 -11t-18 -41v-558z"/>
<glyph glyph-name="O" horiz-adv-x="823" unicode="O" d="M676 295q0 139 -79.5 228t-203.5 89q-51 0 -93 -18t-70 -47t-47 -67t-27.5 -76.5t-8.5 -75.5q0 -139 83 -229t205 -90q115 0 178 85t63 201zM770 328q0 -149 -104 -246.5t-252 -97.5q-151 0 -256 88t-105 225q0 149 103 244.5t263 95.5q144 0 247.5 -88t103.5 -221z"/>
<glyph glyph-name="P" horiz-adv-x="563" unicode="P" d="M200 608v-318q35 -8 54 -8q81 0 130 49t49 126q0 155 -164 155q-45 0 -69 -4zM200 271v-175q0 -43 17 -60t63 -17h33v-19h-277v19h14q39 0 53 11.5t14 46.5v473q0 28 -10.5 40.5t-36.5 12.5h-50v19q13 0 57 2.5t69 3.5q73 3 124 3q74 0 127.5 -16.5t80 -44t38 -56 t11.5 -60.5q0 -88 -65.5 -139.5t-176.5 -51.5q-45 0 -85 8z"/>
<glyph glyph-name="Q" horiz-adv-x="823" unicode="Q" d="M676 295q0 139 -79.5 228t-203.5 89q-51 0 -93 -18t-70 -47t-47 -67t-27.5 -76.5t-8.5 -75.5q0 -139 83 -228.5t205 -89.5q115 0 178 84.5t63 200.5zM801 -181l-16 -21q-24 -6 -46 -6q-54 0 -104 23.5t-84 53.5t-80 65t-87 51q-144 10 -237.5 97.5t-93.5 218.5 q0 143 104 239.5t258 96.5q148 0 251.5 -87.5t103.5 -224.5q0 -118 -72.5 -209.5t-194.5 -121.5v-2q46 -17 97 -61t99 -77.5t102 -34.5z"/>
<glyph glyph-name="R" horiz-adv-x="802" unicode="R" d="M199 610v-328q14 -2 37 -2h25q184 0 184 167q0 77 -44 121t-152 44q-32 0 -50 -2zM199 263v-169q0 -44 18 -59.5t62 -15.5h23v-19h-283v19h17q45 0 62.5 17t17.5 66v421q0 46 -15.5 63t-59.5 17h-22v19q3 0 126 6q62 3 126 3q133 0 200.5 -49t67.5 -129q0 -56 -36 -100 t-97 -62q46 -36 114 -104l79 -79q94 -94 197 -101v-18q-15 -1 -43 -1q-52 0 -88.5 6.5t-68 24t-52.5 35.5t-57 54l-66 66q-61 61 -103 89q-50 -2 -68 -2q-19 0 -51 2z"/>
<glyph glyph-name="S" horiz-adv-x="490" unicode="S" d="M44 152h19q15 -65 62 -103t107 -38q55 0 96.5 31t41.5 87q0 39 -33 75t-80 65.5t-94.5 60t-80.5 72.5t-33 90q0 62 51 103.5t127 41.5q48 0 86.5 -12.5t49.5 -12.5t18 10h16l17 -127h-17q-21 54 -65 86t-96 32q-50 0 -81 -26t-31 -68q0 -39 33 -74t80 -63.5t94.5 -59 t80.5 -73.5t33 -94q0 -74 -58 -122.5t-146 -48.5q-33 0 -85 13.5t-54 13.5q-13 0 -20 -11h-17z"/>
<glyph glyph-name="T" horiz-adv-x="677" unicode="T" d="M380 586v-494q0 -41 17 -57t62 -16h37v-19h-315v19h37q45 0 62 16t17 57v494h-174q-31 0 -46.5 -23t-26.5 -88h-18l16 162h19q1 -9 11 -12q9 -3 20 -3h481q29 0 31 15h19l16 -162h-18q-11 65 -26.5 88t-46.5 23h-174z"/>
<glyph glyph-name="U" horiz-adv-x="792" unicode="U" d="M545 622h235v-19q-50 -1 -70.5 -22t-20.5 -70v-270q0 -49 -16.5 -93t-50 -81.5t-92.5 -60t-137 -22.5q-139 0 -214 70t-75 182v292q0 47 -17 60.5t-69 14.5v19h257v-19h-9q-43 0 -61 -15.5t-18 -57.5v-278q0 -102 58.5 -159t169.5 -57q46 0 84 10.5t72 34t53 67.5t19 105 v233q0 72 -18 93t-80 24v19z"/>
<glyph glyph-name="V" horiz-adv-x="688" unicode="V" d="M369 -16h-50l-217 541q-19 49 -36.5 63.5t-61.5 14.5v19h275v-19q-101 -3 -101 -43q0 -11 6 -26l180 -448l158 413q17 43 17 62q0 23 -21 32.5t-72 9.5v19h232v-19q-39 0 -62 -19.5t-41 -66.5z"/>
<glyph glyph-name="W" horiz-adv-x="1000" unicode="W" d="M525 450l45 110q5 13 5 21q0 22 -30 22h-42q-32 0 -32 -20q0 -8 4 -17zM687 -16h-48l-131 309l-126 -309h-49l-208 532q-22 55 -45 71t-73 16h-6v19h259v-19h-17q-54 0 -54 -36q0 -12 6 -27l182 -458l108 267l-81 197q-14 35 -37 46t-66 11v19h410v-19q-45 0 -66 -11.5 t-33 -41.5l-64 -156l131 -312l177 464q6 15 6 25q0 16 -17 23t-59 9v19h207v-19q-46 0 -64.5 -16t-40.5 -75z"/>
<glyph glyph-name="X" horiz-adv-x="750" unicode="X" d="M356 283l-159 -191q-25 -31 -25 -48q0 -25 55 -25h20v-19h-238v19q53 5 84 24.5t83 82.5l155 187l-155 195q-47 59 -77.5 76.5t-89.5 18.5v19h298v-19h-6q-73 0 -73 -25q0 -12 18 -35l136 -168l108 129q45 54 45 77q0 22 -41 22h-29v19h240v-19q-48 0 -86.5 -23.5 t-83.5 -78.5l-128 -157l188 -234q44 -55 69.5 -70.5t82.5 -20.5v-19h-276v19q65 0 65 25q0 16 -30 54z"/>
<glyph glyph-name="Y" horiz-adv-x="708" unicode="Y" d="M371 291l141 240q15 27 15 42q0 30 -66 30v19h226v-19q-48 -4 -75 -22.5t-50 -56.5l-166 -281v-150q0 -40 17.5 -57t62.5 -17h13v-19h-275v19h19q45 0 62.5 17t17.5 55v141l-178 278q-36 57 -62 74t-75 19v19h266v-19q-70 0 -70 -26q0 -13 17 -39z"/>
<glyph glyph-name="Z" horiz-adv-x="677" unicode="Z" d="M40 0v23l449 563h-297q-49 0 -67.5 -21t-24.5 -84h-18l5 141h515v-23l-452 -563h354q52 0 70 28t37 117h18l-12 -181h-577z"/>
<glyph glyph-name="bracketleft" horiz-adv-x="302" unicode="[" d="M102 652h193v-20h-71q-32 0 -43.5 -9t-11.5 -30v-748q0 -21 11.5 -30t43.5 -9h71v-20h-193v866z"/>
<glyph glyph-name="backslash" horiz-adv-x="458" unicode="\" d="M89 637l323 -651h-43l-323 651h43z"/>
<glyph glyph-name="bracketright" horiz-adv-x="302" unicode="]" d="M200 652v-866h-193v20h71q32 0 43.5 9t11.5 30v748q0 21 -11.5 30t-43.5 9h-71v20h193z"/>
<glyph glyph-name="asciicircum" horiz-adv-x="469" unicode="^" d="M242 672l209 -350h-46l-171 286l-170 -286h-46l209 350h15z"/>
<glyph glyph-name="underscore" horiz-adv-x="500" unicode="_" d="M508 -125h-516v50h516v-50z"/>
<glyph glyph-name="grave" horiz-adv-x="333" unicode="`" d="M244 488l-106 71q-68 45 -68 71q0 13 8.5 21t22.5 8q31 0 64 -44l92 -127h-13z"/>
<glyph glyph-name="a" horiz-adv-x="396" unicode="a" d="M243 67v119q-21 -12 -59 -28q-51 -21 -67.5 -34t-16.5 -42q0 -26 17.5 -42.5t41.5 -16.5q21 0 84 44zM113 310l-68 -33q-3 9 -3 14q0 29 51 72.5t97 43.5q26 0 56 -13t49 -40q11 -15 13 -29.5t2 -56.5v-134q0 -80 8 -91q5 -7 18 -7q23 0 49 22l5 -15q-68 -55 -99 -55 q-42 0 -46 61q-48 -39 -70.5 -50t-45.5 -11q-43 0 -68 22.5t-25 59.5q0 42 30.5 63t87.5 35q43 10 89 38v79q0 44 -17 64q-24 29 -56 29q-24 0 -43 -16t-19 -33q0 -8 5 -19z"/>
<glyph glyph-name="b" horiz-adv-x="500" unicode="b" d="M142 314v-192q0 -42 28 -73.5t81 -31.5q62 0 100.5 47t38.5 122t-39 125t-97 50q-46 0 -112 -47zM142 672v-335q97 70 151 70q67 0 115.5 -57t48.5 -136q0 -96 -67 -161t-167 -65q-47 0 -148 19v542q0 39 -6 48t-35 13l-28 4v17l120 41h16z"/>
<glyph glyph-name="c" horiz-adv-x="427" unicode="c" d="M376 101l15 -9q-65 -104 -177 -104q-43 0 -76.5 18.5t-52.5 48.5t-29 62.5t-10 63.5q0 94 67.5 160t162.5 66q47 0 79.5 -16.5t32.5 -40.5q0 -13 -8.5 -21.5t-20.5 -8.5q-24 0 -56 30.5t-61 30.5q-52 0 -90.5 -53t-38.5 -125q0 -75 40 -124.5t101 -49.5q70 0 122 72z"/>
<glyph glyph-name="d" horiz-adv-x="500" unicode="d" d="M358 81v224q-51 75 -119 75q-58 0 -93.5 -46.5t-35.5 -118.5q0 -75 38 -129.5t92 -54.5q47 0 118 50zM358 388v194q0 14 -7.5 19.5t-31.5 8.5l-33 4v17l139 41v-587q0 -36 30 -36q9 0 19 3l24 7v-21l-128 -50h-12v71q-98 -71 -155 -71q-67 0 -113.5 56.5t-46.5 136.5 q0 94 63 160t154 66q51 0 98 -19z"/>
<glyph glyph-name="e" horiz-adv-x="438" unicode="e" d="M117 280h205q-8 49 -35.5 78.5t-63.5 29.5q-79 0 -106 -108zM406 254h-292q-4 -30 -4 -42q0 -76 45.5 -125t106.5 -49q72 0 127 65l11 -12q-82 -103 -178 -103q-74 0 -124 59t-50 146q0 85 53 149.5t140 64.5q47 0 78 -16.5t42.5 -35.5t23.5 -44t21 -34v-23z"/>
<glyph glyph-name="f" horiz-adv-x="271" unicode="f" d="M258 396l7 -44h-108v-274q0 -34 16 -46.5t58 -12.5h38v-19h-247v19q43 0 55.5 13t12.5 56v264h-74v17q40 9 74 27q0 65 17 113.5t60 91.5q71 71 142 71q39 0 71 -17t32 -30q0 -7 -10.5 -27.5t-16.5 -20.5q-4 0 -20 12.5t-42 24.5t-55 12q-54 0 -82.5 -40.5t-28.5 -113.5 v-76h101z"/>
<glyph glyph-name="g" horiz-adv-x="469" unicode="g" d="M97 -105q0 -37 44.5 -68.5t103.5 -31.5q64 0 114.5 36t50.5 83q0 26 -19 41.5t-48 17.5q-12 1 -88.5 3.5t-92.5 4.5q-9 -10 -28 -26.5t-28 -29.5t-9 -30zM322 253q0 63 -29 99t-76 36q-37 0 -67 -26t-30 -88q0 -52 27 -95t79 -43q43 0 69.5 32.5t26.5 84.5zM472 377v-63 q-55 4 -100 12q17 -31 17 -64q0 -59 -47.5 -102t-127.5 -43q-22 0 -46 8q-6 -6 -22 -14.5t-27.5 -17.5t-11.5 -19q0 -35 143 -36q88 -1 124 -7.5t58 -28.5q30 -30 30 -70q0 -58 -73 -111.5t-200 -53.5q-74 0 -114 27.5t-40 67.5q0 26 15.5 43t45 38t46.5 42q-40 4 -67.5 25 t-27.5 46q0 20 17 32.5t45 22.5t40 19q-96 38 -96 124q0 65 51 109t125 44q70 0 112 -40q43 0 131 10z"/>
<glyph glyph-name="h" d="M160 319v-240q0 -35 13 -47.5t52 -12.5v-19h-200v19q40 2 54 18.5t14 58.5v479q0 17 -5 24t-20 9l-43 6v17l119 41h16v-328q107 63 165 63q57 0 84 -36.5t27 -112.5q0 -111 -5 -201q2 -21 17.5 -29.5t58.5 -8.5v-19h-216v19q40 0 56 16q13 13 17.5 55t4.5 155 q0 71 -28 96t-63 25q-44 0 -118 -47z" unicode="h"/>
<glyph glyph-name="i" horiz-adv-x="260" unicode="i" d="M84 599q0 16 12.5 27t30.5 11t31 -11t13 -27t-13 -27t-31 -11t-30.5 11t-12.5 27zM168 412v-336q0 -57 72 -57v-19h-222v19q46 0 64.5 16.5t18.5 56.5v201q0 29 -5.5 37t-25.5 12l-47 9v16l130 45h15z"/>
<glyph glyph-name="j" horiz-adv-x="250" unicode="j" d="M82 599q0 16 12.5 27t30.5 11t31 -11t13 -27t-13 -27t-31 -11t-30.5 11t-12.5 27zM168 412v-430q0 -100 -47 -157.5t-119 -57.5q-45 0 -76 15t-31 37q0 18 9.5 32t20.5 14q13 0 48.5 -30t60.5 -30q67 0 67 109v388q0 22 -6 29.5t-27 11.5l-45 8v16l131 45h14z"/>
<glyph glyph-name="k" horiz-adv-x="500" unicode="k" d="M265 396h198v-19q-34 -1 -61.5 -10.5t-44 -19.5t-48.5 -33l-92 -66l160 -163q38 -39 61.5 -52t57.5 -14v-19h-215v19q45 0 45 18q0 11 -15 26l-152 158v-153q0 -27 12 -38t46 -11h10v-19h-205v19q38 0 54 16.5t16 50.5v483q0 21 -5.5 29t-23.5 10l-41 6v17l122 41h15 v-434l144 103q15 11 15 20q0 16 -36 16h-17v19z"/>
<glyph glyph-name="l" horiz-adv-x="240" unicode="l" d="M156 672v-593q0 -60 58 -60h17v-19h-225v19q47 0 65 15t18 52v483q0 22 -5.5 30t-25.5 10l-45 5v17l128 41h15z"/>
<glyph glyph-name="m" horiz-adv-x="792" unicode="m" d="M159 309v-228q0 -39 13.5 -50.5t56.5 -11.5v-19h-208v19q41 0 56 18t15 59v196q0 29 -6 39t-23 12l-39 5v17l120 42h15v-80q113 80 178 80q37 0 62 -21.5t33 -58.5q44 27 67 40.5t55 26.5t55 13q100 0 100 -151q0 -131 -3 -192q0 -19 12.5 -32t40.5 -13h32v-19h-225v19h9 q37 0 51 14q16 16 16 142v78q0 114 -75 114q-48 0 -133 -56v-230q0 -37 12 -49.5t50 -12.5v-19h-205v19q42 0 59 17t17 60v185q0 44 -22 65t-52 21q-46 0 -134 -58z"/>
<glyph glyph-name="n" d="M160 304v-217q0 -41 13 -54.5t54 -13.5v-19h-201v19q33 0 50 16.5t17 46.5v210q0 28 -5.5 36.5t-24.5 12.5l-34 7v16l115 42h16v-78q48 30 66.5 41t50.5 24.5t55 13.5q107 0 107 -150q0 -79 -4 -135t-4 -65q0 -38 56 -38h22v-19h-215v19q39 1 57 19q13 13 17 63t4 162 q0 56 -22.5 80.5t-56.5 24.5q-41 0 -133 -64z" unicode="n"/>
<glyph glyph-name="o" d="M120 229q0 -91 45 -154t110 -63q48 0 87 44.5t39 115.5q0 86 -45.5 148.5t-108.5 62.5q-50 0 -88.5 -45.5t-38.5 -108.5zM45 195q0 98 65.5 155t150.5 57q91 0 153 -60.5t62 -149.5q0 -88 -61.5 -148.5t-150.5 -60.5q-93 0 -156 59.5t-63 147.5z" unicode="o"/>
<glyph glyph-name="p" horiz-adv-x="500" unicode="p" d="M150 306v-228q61 -54 118 -54q50 0 84 43.5t34 105.5q0 90 -41.5 136t-89.5 46t-105 -49zM150 13v-162q0 -36 17 -50.5t50 -14.5h25v-19h-236v19h10q38 0 52.5 15.5t14.5 58.5v441q0 15 -5.5 22t-22.5 11l-32 8v19l107 66h20v-96q96 73 155 73q58 0 103 -56t45 -130 q0 -91 -63 -158t-149 -67q-37 0 -91 20z"/>
<glyph glyph-name="q" horiz-adv-x="500" unicode="q" d="M360 85v178q0 53 -32 86t-81 33q-61 0 -97.5 -45.5t-36.5 -122.5q0 -76 39.5 -128t98.5 -52q58 0 109 51zM427 354v-507q0 -30 16.5 -45.5t41.5 -15.5h11v-19h-242v19h39q39 0 53 17t14 60v199q-80 -70 -151 -70q-70 0 -116.5 55.5t-46.5 140.5q0 92 61.5 155.5 t149.5 63.5q59 0 126 -34q15 20 33 32h17q-6 -27 -6 -51z"/>
<glyph glyph-name="r" horiz-adv-x="333" unicode="r" d="M160 267v-194q0 -31 14 -42.5t51 -11.5h38v-19h-237v19q38 1 52.5 18t14.5 57v231l-67 24v17l114 40h20v-106h2q40 66 55.5 83.5t39.5 17.5q13 0 34 -9q4 -2 11.5 -4t19.5 -5t21 -6l-24 -60q-27 4 -53 16q-22 10 -35 10q-20 0 -39 -26q-20 -28 -32 -50z"/>
<glyph glyph-name="s" horiz-adv-x="302" unicode="s" d="M32 101h16q9 -44 35 -69t60 -25q30 0 50.5 19.5t20.5 46.5q0 29 -32 61q-25 25 -67.5 52t-62.5 49.5t-20 59.5q0 50 35.5 81t92.5 31q40 0 80 -16l2 -91h-17q-5 38 -27.5 60.5t-52.5 22.5q-25 0 -43 -16t-18 -40t19 -45t46.5 -37.5t55 -35t46.5 -46t19 -61.5 q0 -49 -35.5 -81.5t-88.5 -32.5q-25 0 -44 7q-22 6 -27 6q-9 0 -17 -12h-15z"/>
<glyph glyph-name="t" horiz-adv-x="292" unicode="t" d="M142 396h143l-16 -44h-127v-233q0 -42 22.5 -63t43.5 -21q32 0 61 50l16 -15q-38 -82 -109 -82q-44 0 -72.5 33t-28.5 83v248h-46v16q60 29 96 127h17v-99z"/>
<glyph glyph-name="u" d="M497 47v-18l-134 -41v80q-111 -80 -170 -80q-41 0 -73.5 27t-32.5 75v222q0 18 -6 27.5t-21 13.5l-35 10v15l129 28v-280q0 -44 26.5 -67t63.5 -23q53 0 119 55v215q0 29 -6.5 39t-30.5 14l-50 9v14l154 24v-337q0 -29 23 -29q9 0 23 3z" unicode="u"/>
<glyph glyph-name="v" horiz-adv-x="479" unicode="v" d="M256 -9h-29l-145 332q-19 45 -44 50l-31 5v18h204v-18q-35 -1 -50.5 -6.5t-15.5 -19.5q0 -12 10 -31l106 -249l102 231q8 18 8 31q0 39 -72 44v18h174v-18q-52 -10 -79 -73z"/>
<glyph glyph-name="w" horiz-adv-x="740" unicode="w" d="M525 -9h-27l-119 282l-120 -282h-28l-149 336q-11 25 -26 36t-48 15v18h194v-18q-54 -3 -54 -28q0 -12 12 -39l108 -241l98 232q-17 39 -32.5 54.5t-41.5 18.5l-24 3v18h207v-18q-52 -1 -52 -30q0 -14 9 -36l98 -238l96 234q9 23 9 36q0 34 -67 34v18h168v-18 q-29 -3 -48 -19.5t-34 -52.5z"/>
<glyph glyph-name="x" horiz-adv-x="490" unicode="x" d="M15 378v18h202v-18q-43 0 -43 -17q0 -10 10 -24l75 -99l65 73q18 19 18 37q0 30 -51 30v18h193v-18l-29 -3q-30 -3 -51.5 -17.5t-46.5 -41.5l-85 -94l120 -150q23 -28 41.5 -40t50.5 -12v-20h-200v20q49 0 49 17q0 7 -13 25l-89 114l-88 -99q-13 -14 -13 -27 q0 -30 64 -30v-20h-186v20q35 0 55 10.5t47 41.5l107 120l-97 127q-43 57 -105 59z"/>
<glyph glyph-name="y" horiz-adv-x="469" unicode="y" d="M261 73l85 212q14 37 14 55q0 21 -15 29t-47 9v18h166v-18q-53 -6 -83 -80l-170 -424q-23 -58 -43 -82.5t-45 -24.5q-18 0 -29.5 10t-11.5 25q0 18 15 26t37 14.5t31 15.5q19 19 34 57l30 75l-155 329q-15 32 -31.5 45t-47.5 14v18h201v-18q-58 -1 -58 -28q0 -11 10 -33z "/>
<glyph glyph-name="z" horiz-adv-x="406" unicode="z" d="M31 0v19l253 341h-137h-32q-16 0 -25 -15.5t-22 -59.5l-6 -21h-19l31 159h17q0 -16 9 -21.5t38 -5.5h238v-18l-252 -342h183q24 0 38.5 16.5t30.5 56.5h18l-41 -109h-322z"/>
<glyph glyph-name="braceleft" horiz-adv-x="479" unicode="{" d="M103 211v17q49 9 80 37t31 63q0 22 -12 72q-11 48 -11 84q0 68 52.5 124.5t131.5 63.5v-18q-52 -5 -82.5 -40t-30.5 -76q0 -36 9 -79q10 -48 10 -78q0 -49 -37.5 -95t-101.5 -65v-2q63 -19 101 -65.5t38 -95.5q0 -29 -10 -77q-9 -43 -9 -80q0 -41 30.5 -76t82.5 -40v-18 q-79 7 -131.5 63.5t-52.5 124.5q0 38 11 84q12 52 12 72q0 35 -31 63t-80 37z"/>
<glyph glyph-name="bar" horiz-adv-x="510" unicode="|" d="M234 637h43v-870h-43v870z"/>
<glyph glyph-name="braceright" horiz-adv-x="479" unicode="}" d="M376 228v-17q-49 -9 -80 -37t-31 -63q0 -24 11 -72q12 -50 12 -84q0 -68 -52.5 -124.5t-131.5 -63.5v18q52 5 82.5 40t30.5 76q0 32 -10 80q-9 43 -9 77q0 49 38 95.5t101 65.5v2q-64 19 -101.5 65t-37.5 95q0 35 9 78q10 48 10 79q0 41 -30.5 76t-82.5 40v18 q79 -7 131.5 -63.5t52.5 -124.5q0 -32 -12 -84q-11 -46 -11 -72q0 -35 31 -63t80 -37z"/>
<glyph glyph-name="asciitilde" horiz-adv-x="542" unicode="~" d="M507 387h28q-3 -73 -37 -111t-92 -38q-48 0 -150 44q-104 44 -137 44q-68 0 -84 -88h-28q1 74 35.5 111.5t93.5 37.5q40 0 145 -44q108 -46 144 -46q35 0 56.5 24t25.5 66z"/>
<glyph glyph-name="uni00A0" horiz-adv-x="278" unicode=" "/>
<glyph glyph-name="exclamdown" horiz-adv-x="260" unicode="¡" d="M179 382q0 -21 -14.5 -34t-36.5 -13t-36.5 13t-14.5 34q0 22 14.5 34.5t36.5 12.5t36.5 -13t14.5 -34zM118 239h20l37 -450q1 -14 -4 -18t-21 -4h-45q-25 0 -25 16q0 1 0.5 3.5t0.5 4.5z"/>
<glyph glyph-name="cent" horiz-adv-x="427" unicode="¢" d="M165 65l121 299q-26 17 -44 17q-52 0 -90.5 -53t-38.5 -125q0 -80 52 -138zM72 -168l70 172q-46 26 -71 74.5t-25 102.5q0 91 65.5 158.5t165.5 67.5q17 0 25 -1l52 127h32l-54 -134q56 -17 56 -49q0 -13 -8.5 -21.5t-20.5 -8.5q-25 0 -50 24l-119 -299q36 -16 65 -16 q67 0 122 72l14 -9q-65 -104 -170 -104q-24 0 -51 6l-66 -162h-32z"/>
<glyph glyph-name="sterling" horiz-adv-x="760" unicode="£" d="M208 88l78 202q39 101 78 171.5t93 124.5q74 74 161 74q48 0 83 -21t35 -50q0 -14 -9 -22.5t-23 -8.5t-28 10.5t-24.5 23.5t-29.5 23.5t-42 10.5q-37 0 -73 -36q-28 -28 -66.5 -114.5t-86.5 -204t-83 -183.5h172l-5 -24h-178q-36 -75 -85 -135l2 -2q49 27 109 27 q44 0 85.5 -19.5t69 -43t62.5 -43t67 -19.5q37 0 63.5 21.5t26.5 52.5q0 17 -14 40.5t-14 32.5q0 16 10.5 26.5t24.5 10.5q19 0 31.5 -18.5t12.5 -47.5q0 -65 -57 -116t-129 -51q-37 0 -71 14.5t-59 35t-49 41.5t-52.5 35.5t-57.5 14.5q-33 0 -81 -23q-25 -51 -57 -83.5 t-57 -32.5q-11 0 -19 7t-8 16q0 24 36.5 58t81.5 51q29 52 66 150h-147l5 24h152z"/>
<glyph glyph-name="currency" horiz-adv-x="667" unicode="¤" d="M160 320q0 -71 51 -122.5t123 -51.5q71 0 122.5 51.5t51.5 122.5q0 72 -51.5 123t-122.5 51q-72 0 -123 -51t-51 -123zM472 488l61 61l30 -31l-61 -60q49 -67 49 -138q0 -69 -49 -137l61 -61l-30 -30l-61 61q-68 -50 -138 -50q-69 0 -138 49l-61 -60l-30 30l61 60 q-49 68 -49 138q0 71 49 138l-61 60l30 31l61 -60q67 48 138 48q39 0 69.5 -10.5t68.5 -38.5z"/>
<glyph glyph-name="yen" horiz-adv-x="500" unicode="¥" d="M345 424h-164l86 -133zM160 457h205l43 74q15 25 15 41q0 31 -66 31v19h226v-19q-48 -4 -75 -22t-50 -57l-39 -67h111v-33h-131l-93 -157h224v-33h-238v-141q0 -40 17.5 -57t62.5 -17h13v-19h-275v19h19q45 0 62.5 17t17.5 55v143h-268v33h246l-101 157h-145v33h124 l-34 53q-36 57 -62 74t-75 19v19h266v-19q-70 0 -70 -26q0 -13 17 -39z"/>
<glyph glyph-name="brokenbar" horiz-adv-x="510" unicode="¦" d="M234 637h43v-369h-43v369zM234 136h43v-369h-43v369z"/>
<glyph glyph-name="section" horiz-adv-x="469" unicode="§" d="M175 192q16 -25 64 -93t73.5 -115t32.5 -87q33 49 33 111q0 42 -6.5 75.5t-25 70t-34 61t-48.5 73.5q-99 142 -122 193q-17 36 -18 60h-2q-33 -51 -33 -125q0 -41 17.5 -90t30 -70.5t38.5 -63.5zM313 -114q0 33 -41 97t-89.5 127t-89.5 146t-41 150q0 103 66 178.5 t159 75.5q47 0 87.5 -20.5t40.5 -44.5q0 -13 -10.5 -22.5t-25.5 -9.5q-17 0 -34 16.5t-38.5 33.5t-49.5 17q-37 0 -64 -23.5t-27 -57.5q0 -26 24 -66t87 -127l15 -21q70 -98 102 -167t32 -150q0 -106 -73.5 -172.5t-154.5 -66.5q-47 0 -85 19.5t-38 43.5q0 13 9.5 22.5 t22.5 9.5q18 0 34 -16.5t38 -33t53 -16.5q37 0 64 23.5t27 54.5z"/>
<glyph glyph-name="dieresis" horiz-adv-x="333" unicode="¨" d="M70 603q18 0 31 -13t13 -31t-13 -31t-31 -13t-31 13t-13 31t13 31t31 13zM264 603q18 0 31 -13t13 -31t-13 -31t-31 -13t-31 13t-13 31t13 31t31 13z"/>
<glyph glyph-name="copyright" horiz-adv-x="760" unicode="©" d="M380 647q-131 0 -223.5 -92.5t-92.5 -223.5t92.5 -223.5t223.5 -92.5t223.5 92.5t92.5 223.5t-92.5 223.5t-223.5 92.5zM380 677q143 0 244.5 -101.5t101.5 -244.5t-101.5 -244.5t-244.5 -101.5t-244.5 101.5t-101.5 244.5t101.5 244.5t244.5 101.5zM550 554l10 -137h-19 q-35 116 -148 116q-72 0 -114.5 -51.5t-42.5 -138.5q0 -104 45 -153t117 -49q95 0 152 79l19 -9q-68 -99 -188 -99q-96 0 -161 62t-65 154q0 96 70 161t173 65q36 0 70 -11t40 -11q16 0 23 22h19z"/>
<glyph glyph-name="ordfeminine" horiz-adv-x="260" unicode="ª" d="M153 434v63q-13 -6 -31.5 -13t-26.5 -10.5t-14.5 -11.5t-6.5 -19q0 -14 9 -23t22 -9q8 0 48 23zM83 576l-54 -24q-4 4 -4 12q0 22 34.5 47.5t65.5 25.5q32 0 57.5 -18t25.5 -45v-128q0 -27 11 -27q17 0 34 17l6 -17q-42 -35 -70 -35t-34 31q-25 -19 -38.5 -25t-32.5 -6 q-28 0 -45.5 14.5t-17.5 37.5q0 25 20.5 38t57.5 23t54 20v55q0 18 -13.5 30t-27.5 12q-11 0 -22 -7.5t-11 -18.5q0 -7 4 -12z"/>
<glyph glyph-name="guillemotleft" horiz-adv-x="354" unicode="«" d="M104 219l95 -184h-18l-147 184l147 184h18zM245 219l65 -169h-18l-117 169l117 169h18z"/>
<glyph glyph-name="logicalnot" horiz-adv-x="667" unicode="¬" d="M71 462h525v-282h-45v238h-480v44z"/>
<glyph glyph-name="uni00AD" horiz-adv-x="396" unicode="­" d="M35 221h326v-50h-326v50z"/>
<glyph glyph-name="registered" horiz-adv-x="760" unicode="®" d="M380 647q-131 0 -223.5 -92.5t-92.5 -223.5t92.5 -223.5t223.5 -92.5t223.5 92.5t92.5 223.5t-92.5 223.5t-223.5 92.5zM380 677q143 0 244.5 -101.5t101.5 -244.5t-101.5 -244.5t-244.5 -101.5t-244.5 101.5t-101.5 244.5t101.5 244.5t244.5 101.5zM304 340h19 q51 0 85.5 22t34.5 67q0 40 -28 66.5t-71 26.5q-16 0 -40 -7v-175zM188 544h188q66 0 106 -30t40 -80q0 -81 -109 -108l102 -146q16 -24 28.5 -32.5t30.5 -10.5v-16h-90l-144 198h-36v-144q0 -21 12.5 -29.5t44.5 -8.5v-16h-179v16q51 0 51 43v304q0 21 -9.5 31.5 t-35.5 10.5v18z"/>
<glyph glyph-name="macron" horiz-adv-x="333" unicode="¯" d="M29 589h275v-58h-275v58z"/>
<glyph glyph-name="degree" horiz-adv-x="396" unicode="°" d="M198 639q62 0 106 -44t44 -106t-44 -106t-106 -44t-106 44t-44 106t44 106t106 44zM198 598q-45 0 -77 -32t-32 -77t32 -77t77 -32t77 32t32 77t-32 77t-77 32z"/>
<glyph glyph-name="plusminus" horiz-adv-x="667" unicode="±" d="M355 421h241v-44h-241v-241h-44v241h-240v44h240v240h44v-240zM71 26h525v-44h-525v44z"/>
<glyph glyph-name="twosuperior" horiz-adv-x="302" unicode="²" d="M8 410v12q24 26 112 102q76 65 76 117q0 29 -22 47t-50 18q-25 0 -51 -16t-38 -53h-20q6 51 42.5 78t82.5 27q47 0 81 -26t34 -67q0 -26 -13 -47.5t-29 -35t-54 -39.5q-43 -31 -98 -79h128q34 0 42.5 5.5t14.5 34.5h21l-12 -78h-247z"/>
<glyph glyph-name="threesuperior" horiz-adv-x="302" unicode="³" d="M100 563l-11 14q82 51 82 88q0 21 -16 32.5t-35 11.5q-47 0 -76 -52l-21 7q19 40 51.5 58.5t64.5 18.5q35 0 59 -17t24 -43q0 -37 -54 -69q42 -4 65.5 -29t23.5 -58q0 -47 -46.5 -84.5t-109.5 -37.5q-34 0 -64 11t-30 28q0 9 7.5 15t17.5 6q12 0 45 -23q26 -17 45 -17 q30 0 54.5 26t24.5 63q0 33 -18.5 50.5t-39.5 17.5q-22 0 -43 -17z"/>
<glyph glyph-name="acute" horiz-adv-x="333" unicode="´" d="M83 488h-13l92 127q33 44 64 44q14 0 22.5 -8t8.5 -21q0 -26 -68 -71z"/>
<glyph glyph-name="mu" horiz-adv-x="500" unicode="µ" d="M57 396h67v-216q0 -78 17 -108.5t64 -30.5q70 0 130 70v285h67v-301q0 -26 10 -41t24 -15q30 0 39 60h21q-2 -51 -25.5 -82t-60.5 -31q-31 0 -52.5 25t-22.5 68q-93 -93 -166 -93q-26 0 -42.5 9t-33.5 33q-1 -9 -1 -26q0 -33 11.5 -87.5t11.5 -77.5q0 -22 -13 -37.5 t-32 -15.5t-31 14.5t-12 38.5q0 19 15 81.5t15 117.5v360z"/>
<glyph glyph-name="paragraph" horiz-adv-x="448" unicode="¶" d="M390 595v-828h-36v828h-91v-828h-36v486q-119 0 -176.5 49.5t-57.5 135.5t58.5 135t161.5 49h241v-27h-64z"/>
<glyph glyph-name="periodcentered" horiz-adv-x="260" unicode="·" d="M130 370q22 0 36.5 -13t14.5 -34q0 -22 -14.5 -34.5t-36.5 -12.5t-36.5 13t-14.5 34t14.5 34t36.5 13z"/>
<glyph glyph-name="cedilla" horiz-adv-x="333" unicode="¸" d="M112 -201l7 14q13 -4 26 -4q22 0 37.5 15t15.5 36q0 36 -32 36q-22 0 -64 -20l78 129h15l-32 -54q4 1 11 1q28 0 47 -23t19 -52q0 -36 -25 -61t-60 -25q-19 0 -43 8z"/>
<glyph glyph-name="onesuperior" horiz-adv-x="302" unicode="¹" d="M153 741h30v-295q0 -12 4 -16t14 -4h37v-16h-160v16h33q14 0 17.5 3.5t3.5 16.5v242q-42 -26 -71 -38l-8 13q65 38 100 78z"/>
<glyph glyph-name="ordmasculine" horiz-adv-x="344" unicode="º" d="M87 530q0 -52 27 -88.5t66 -36.5q32 0 53.5 26t21.5 65q0 49 -27.5 84.5t-65.5 35.5q-32 0 -53.5 -24.5t-21.5 -61.5zM314 511q0 -48 -40.5 -87.5t-103.5 -39.5q-40 0 -70 14.5t-45 36t-22 41.5t-7 35q0 46 39.5 86t104.5 40q32 0 58 -9.5t41.5 -24t26 -32.5t14.5 -33 t4 -27z"/>
<glyph glyph-name="guillemotright" horiz-adv-x="354" unicode="»" d="M250 219l-95 184h18l147 -184l-147 -184h-18zM109 219l-65 169h18l117 -169l-117 -169h-18z"/>
<glyph glyph-name="onequarter" horiz-adv-x="719" unicode="¼" d="M117 -27h-41l486 681h41zM132 338v246q-42 -27 -70 -38l-9 13q62 35 100 78h30v-298q0 -10 4 -13.5t15 -3.5h36v-16h-160v16h41q13 0 13 16zM516 124v140h-2l-107 -140h109zM567 93v-100h-51v100h-151v15l176 223h26v-207h59v-31h-59z"/>
<glyph glyph-name="onehalf" horiz-adv-x="719" unicode="½" d="M132 338v246q-42 -27 -70 -38l-9 13q62 35 100 78h30v-298q0 -10 4 -13.5t15 -3.5h36v-16h-160v16h41q13 0 13 16zM642 78h21l-12 -78h-247v12q28 28 69.5 64.5t63 56.5t38.5 46.5t17 51.5q0 28 -20.5 46.5t-51.5 18.5t-54.5 -18.5t-33.5 -50.5h-21q5 47 39.5 75.5 t85.5 28.5q49 0 82 -26.5t33 -66.5q0 -39 -23.5 -63.5t-76.5 -61.5t-91 -77h137q24 0 32.5 7.5t12.5 34.5zM117 -27h-41l486 681h41z"/>
<glyph glyph-name="threequarters" horiz-adv-x="719" unicode="¾" d="M120 459l-12 14q42 28 62.5 48t20.5 40q0 19 -15 31.5t-37 12.5q-48 0 -76 -52l-20 7q16 36 47 56.5t69 20.5q35 0 59 -17.5t24 -42.5q0 -37 -54 -68v-2q40 -3 64.5 -26.5t24.5 -59.5q0 -49 -47 -85.5t-109 -36.5q-38 0 -66 11.5t-28 27.5q0 8 7 14.5t17 6.5q14 0 42 -20 t49 -20q32 0 55.5 26.5t23.5 62.5q0 29 -17 48.5t-42 19.5q-20 0 -42 -17zM134 -27h-41l486 681h41zM533 124v140h-2l-107 -140h109zM584 -7h-51v100h-151v15l176 223h26v-207h59v-31h-59v-100z"/>
<glyph glyph-name="questiondown" horiz-adv-x="354" unicode="¿" d="M199 318q-22 0 -36.5 13t-14.5 34q0 22 14.5 34.5t36.5 12.5t36.5 -13t14.5 -34t-14.5 -34t-36.5 -13zM216 -233q-74 0 -123.5 49t-49.5 128q0 44 13.5 76.5t33.5 48t43 28t43 18.5t33.5 17.5t13.5 27.5q0 34 -38 72h22q49 -53 49 -103q0 -32 -19.5 -52t-47 -30 t-55.5 -21t-47.5 -34t-19.5 -60q0 -43 28 -66t74 -23q18 0 44 3.5t33 3.5q57 0 57 -36q0 -47 -87 -47z"/>
<glyph glyph-name="Agrave" horiz-adv-x="677" unicode="À" d="M406 320l-88 233l-85 -233h173zM423 276h-207l-58 -157q-20 -54 -20 -63q0 -37 81 -37h16v-19h-231v19q49 1 66.5 17t41.5 82l182 497l-9 22h87l209 -555q15 -39 33.5 -51t57.5 -12v-19h-275v19h26q44 0 61 7t17 27q0 14 -11 41zM416 701l-106 71q-68 45 -68 71 q0 13 8.5 21t22.5 8q31 0 64 -44l92 -127h-13z"/>
<glyph glyph-name="Aacute" horiz-adv-x="677" unicode="Á" d="M406 320l-88 233l-85 -233h173zM423 276h-207l-58 -157q-20 -54 -20 -63q0 -37 81 -37h16v-19h-231v19q49 1 66.5 17t41.5 82l182 497l-9 22h87l209 -555q15 -39 33.5 -51t57.5 -12v-19h-275v19h26q44 0 61 7t17 27q0 14 -11 41zM255 701h-13l92 127q33 44 64 44 q14 0 22.5 -8t8.5 -21q0 -26 -68 -71z"/>
<glyph glyph-name="Acircumflex" horiz-adv-x="677" unicode="Â" d="M406 320l-88 233l-85 -233h173zM423 276h-207l-58 -157q-20 -54 -20 -63q0 -37 81 -37h16v-19h-231v19q49 1 66.5 17t41.5 82l182 497l-9 22h87l209 -555q15 -39 33.5 -51t57.5 -12v-19h-275v19h26q44 0 61 7t17 27q0 14 -11 41zM336 824l-118 -125v17l108 180h28 l106 -180v-17z"/>
<glyph glyph-name="Atilde" horiz-adv-x="677" unicode="Ã" d="M406 320l-88 233l-85 -233h173zM423 276h-207l-58 -157q-20 -54 -20 -63q0 -37 81 -37h16v-19h-231v19q49 1 66.5 17t41.5 82l182 497l-9 22h87l209 -555q15 -39 33.5 -51t57.5 -12v-19h-275v19h26q44 0 61 7t17 27q0 14 -11 41zM215 721h-11q0 55 21.5 83.5t59.5 28.5 q29 0 71 -30q45 -31 60 -31q42 0 46 61h11q1 -5 1 -15q0 -42 -23.5 -69t-54.5 -27q-26 0 -71 31q-42 30 -61 30q-41 0 -49 -62z"/>
<glyph glyph-name="Adieresis" horiz-adv-x="677" unicode="Ä" d="M242 816q18 0 31 -13t13 -31t-13 -31t-31 -13t-31 13t-13 31t13 31t31 13zM436 816q18 0 31 -13t13 -31t-13 -31t-31 -13t-31 13t-13 31t13 31t31 13zM406 320l-88 233l-85 -233h173zM423 276h-207l-58 -157q-20 -54 -20 -63q0 -37 81 -37h16v-19h-231v19q49 1 66.5 17 t41.5 82l182 497l-9 22h87l209 -555q15 -39 33.5 -51t57.5 -12v-19h-275v19h26q44 0 61 7t17 27q0 14 -11 41z"/>
<glyph glyph-name="Aring" horiz-adv-x="677" unicode="Å" d="M406 320l-88 233l-85 -233h173zM423 276h-207l-58 -157q-20 -54 -20 -63q0 -37 81 -37h16v-19h-231v19q49 1 66.5 17t41.5 82l182 497l-9 22h87l209 -555q15 -39 33.5 -51t57.5 -12v-19h-275v19h26q44 0 61 7t17 27q0 14 -11 41zM339 833q-28 0 -47.5 -19.5t-19.5 -47.5 t19.5 -47.5t47.5 -19.5t47.5 19.5t19.5 47.5t-19.5 47.5t-47.5 19.5zM339 857q37 0 64 -26.5t27 -64.5t-27 -64.5t-64 -26.5t-64 26.5t-27 64.5t27 64.5t64 26.5z"/>
<glyph glyph-name="AE" horiz-adv-x="875" unicode="Æ" d="M745 415v-190h-19q-6 50 -20 64.5t-48 14.5h-157v-213q0 -33 12 -44t42 -11h142q51 0 74 23.5t42 89.5h18l-16 -149h-519v19h28q58 0 76 17.5t18 64.5v146h-220l-99 -161q-13 -21 -13 -35q0 -32 76 -32v-19h-214v19q35 0 59 19t53 66l263 435q14 23 14 38q0 26 -41 26 h-22v19h510l8 -139h-18q-10 63 -28 83t-46 20h-199v-246h167q28 0 41 16.5t17 58.5h19zM418 597h-9l-190 -314h199v314z"/>
<glyph glyph-name="Ccedilla" horiz-adv-x="729" unicode="Ç" d="M302 -124l67 110q-140 9 -228.5 97t-88.5 220q0 146 101 240t258 94q55 0 100.5 -10t73 -20t37.5 -10q14 0 18 6h15l9 -145h-19q-25 70 -87 112.5t-141 42.5q-117 0 -194 -86t-77 -203q0 -128 83.5 -221t198.5 -93q66 0 134.5 37t109.5 110h19q-23 -79 -64 -146 q-7 1 -21 1q-18 0 -85 -14t-138 -14l-20 -33q4 1 11 1q28 0 47 -23t19 -52q0 -36 -25 -61t-60 -25q-19 0 -43 8l7 14q13 -4 26 -4q22 0 37.5 15t15.5 36q0 36 -32 36q-22 0 -64 -20z"/>
<glyph glyph-name="Egrave" horiz-adv-x="594" unicode="È" d="M464 415v-190h-19q-6 50 -20.5 64.5t-47.5 14.5h-169v-213q0 -33 12 -44t42 -11h154q51 0 74 23.5t42 89.5h18l-16 -149h-531v19h28q58 0 76 17.5t18 64.5v422q0 44 -16 62t-64 18h-22v19h480l8 -139h-18q-9 60 -26.5 81.5t-47.5 21.5h-211v-246h179q28 0 41 16.5 t17 58.5h19zM375 701l-106 71q-68 45 -68 71q0 13 8.5 21t22.5 8q31 0 64 -44l92 -127h-13z"/>
<glyph glyph-name="Eacute" horiz-adv-x="594" unicode="É" d="M464 415v-190h-19q-6 50 -20.5 64.5t-47.5 14.5h-169v-213q0 -33 12 -44t42 -11h154q51 0 74 23.5t42 89.5h18l-16 -149h-531v19h28q58 0 76 17.5t18 64.5v422q0 44 -16 62t-64 18h-22v19h480l8 -139h-18q-9 60 -26.5 81.5t-47.5 21.5h-211v-246h179q28 0 41 16.5 t17 58.5h19zM214 701h-13l92 127q33 44 64 44q14 0 22.5 -8t8.5 -21q0 -26 -68 -71z"/>
<glyph glyph-name="Ecircumflex" horiz-adv-x="594" unicode="Ê" d="M464 415v-190h-19q-6 50 -20.5 64.5t-47.5 14.5h-169v-213q0 -33 12 -44t42 -11h154q51 0 74 23.5t42 89.5h18l-16 -149h-531v19h28q58 0 76 17.5t18 64.5v422q0 44 -16 62t-64 18h-22v19h480l8 -139h-18q-9 60 -26.5 81.5t-47.5 21.5h-211v-246h179q28 0 41 16.5 t17 58.5h19zM295 824l-118 -125v17l108 180h28l106 -180v-17z"/>
<glyph glyph-name="Edieresis" horiz-adv-x="594" unicode="Ë" d="M464 415v-190h-19q-6 50 -20.5 64.5t-47.5 14.5h-169v-213q0 -33 12 -44t42 -11h154q51 0 74 23.5t42 89.5h18l-16 -149h-531v19h28q58 0 76 17.5t18 64.5v422q0 44 -16 62t-64 18h-22v19h480l8 -139h-18q-9 60 -26.5 81.5t-47.5 21.5h-211v-246h179q28 0 41 16.5 t17 58.5h19zM201 816q18 0 31 -13t13 -31t-13 -31t-31 -13t-31 13t-13 31t13 31t31 13zM395 816q18 0 31 -13t13 -31t-13 -31t-31 -13t-31 13t-13 31t13 31t31 13z"/>
<glyph glyph-name="Igrave" horiz-adv-x="333" unicode="Ì" d="M288 19v-19h-243v19q46 2 60.5 19t14.5 67v426q0 40 -16 55t-59 17v19h243v-19q-49 0 -67 -16t-18 -65v-424q0 -45 17 -62t68 -17zM244 701l-106 71q-68 45 -68 71q0 13 8.5 21t22.5 8q31 0 64 -44l92 -127h-13z"/>
<glyph glyph-name="Iacute" horiz-adv-x="333" unicode="Í" d="M288 19v-19h-243v19q46 2 60.5 19t14.5 67v426q0 40 -16 55t-59 17v19h243v-19q-49 0 -67 -16t-18 -65v-424q0 -45 17 -62t68 -17zM83 701h-13l92 127q33 44 64 44q14 0 22.5 -8t8.5 -21q0 -26 -68 -71z"/>
<glyph glyph-name="Icircumflex" horiz-adv-x="333" unicode="Î" d="M288 19v-19h-243v19q46 2 60.5 19t14.5 67v426q0 40 -16 55t-59 17v19h243v-19q-49 0 -67 -16t-18 -65v-424q0 -45 17 -62t68 -17zM164 824l-118 -125v17l108 180h28l106 -180v-17z"/>
<glyph glyph-name="Idieresis" horiz-adv-x="333" unicode="Ï" d="M288 19v-19h-243v19q46 2 60.5 19t14.5 67v426q0 40 -16 55t-59 17v19h243v-19q-49 0 -67 -16t-18 -65v-424q0 -45 17 -62t68 -17zM70 816q18 0 31 -13t13 -31t-13 -31t-31 -13t-31 13t-13 31t13 31t31 13zM264 816q18 0 31 -13t13 -31t-13 -31t-31 -13t-31 13t-13 31 t13 31t31 13z"/>
<glyph glyph-name="Eth" horiz-adv-x="760" unicode="Ð" d="M372 331v-40h-178v-217q0 -34 13 -44.5t69 -10.5q100 0 152.5 17t99.5 64q33 32 58 89t25 127q0 135 -80 215q-81 81 -257 81q-32 0 -80 -4v-277h178zM111 331v191q0 48 -15.5 64.5t-60.5 16.5h-20v19q49 3 141 6q83 3 168 3q189 0 285 -83.5t96 -215.5q0 -59 -23 -116 t-66.5 -106t-116.5 -79.5t-164 -30.5h-320v19h17q42 0 60.5 15.5t18.5 57.5v199h-96v40h96z"/>
<glyph glyph-name="Ntilde" horiz-adv-x="813" unicode="Ñ" d="M705 -7h-26l-518 542v-429q0 -54 19 -70.5t82 -16.5v-19h-232v19h4q45 0 63.5 16t18.5 51v492q-34 24 -84 25v19h157l471 -491v398q0 45 -18.5 58.5t-79.5 15.5v19h234v-19q-55 0 -73 -11t-18 -41v-558zM283 721h-11q0 55 21.5 83.5t59.5 28.5q29 0 71 -30q45 -31 60 -31 q42 0 46 61h11q1 -5 1 -15q0 -42 -23.5 -69t-54.5 -27q-26 0 -71 31q-42 30 -61 30q-41 0 -49 -62z"/>
<glyph glyph-name="Ograve" horiz-adv-x="823" unicode="Ò" d="M676 295q0 139 -79.5 228t-203.5 89q-51 0 -93 -18t-70 -47t-47 -67t-27.5 -76.5t-8.5 -75.5q0 -139 83 -229t205 -90q115 0 178 85t63 201zM770 328q0 -149 -104 -246.5t-252 -97.5q-151 0 -256 88t-105 225q0 149 103 244.5t263 95.5q144 0 247.5 -88t103.5 -221z M489 701l-106 71q-68 45 -68 71q0 13 8.5 21t22.5 8q31 0 64 -44l92 -127h-13z"/>
<glyph glyph-name="Oacute" horiz-adv-x="823" unicode="Ó" d="M676 295q0 139 -79.5 228t-203.5 89q-51 0 -93 -18t-70 -47t-47 -67t-27.5 -76.5t-8.5 -75.5q0 -139 83 -229t205 -90q115 0 178 85t63 201zM770 328q0 -149 -104 -246.5t-252 -97.5q-151 0 -256 88t-105 225q0 149 103 244.5t263 95.5q144 0 247.5 -88t103.5 -221z M328 701h-13l92 127q33 44 64 44q14 0 22.5 -8t8.5 -21q0 -26 -68 -71z"/>
<glyph glyph-name="Ocircumflex" horiz-adv-x="823" unicode="Ô" d="M676 295q0 139 -79.5 228t-203.5 89q-51 0 -93 -18t-70 -47t-47 -67t-27.5 -76.5t-8.5 -75.5q0 -139 83 -229t205 -90q115 0 178 85t63 201zM770 328q0 -149 -104 -246.5t-252 -97.5q-151 0 -256 88t-105 225q0 149 103 244.5t263 95.5q144 0 247.5 -88t103.5 -221z M409 824l-118 -125v17l108 180h28l106 -180v-17z"/>
<glyph glyph-name="Otilde" horiz-adv-x="823" unicode="Õ" d="M676 295q0 139 -79.5 228t-203.5 89q-51 0 -93 -18t-70 -47t-47 -67t-27.5 -76.5t-8.5 -75.5q0 -139 83 -229t205 -90q115 0 178 85t63 201zM770 328q0 -149 -104 -246.5t-252 -97.5q-151 0 -256 88t-105 225q0 149 103 244.5t263 95.5q144 0 247.5 -88t103.5 -221z M288 721h-11q0 55 21.5 83.5t59.5 28.5q29 0 71 -30q45 -31 60 -31q42 0 46 61h11q1 -5 1 -15q0 -42 -23.5 -69t-54.5 -27q-26 0 -71 31q-42 30 -61 30q-41 0 -49 -62z"/>
<glyph glyph-name="Odieresis" horiz-adv-x="823" unicode="Ö" d="M315 816q18 0 31 -13t13 -31t-13 -31t-31 -13t-31 13t-13 31t13 31t31 13zM509 816q18 0 31 -13t13 -31t-13 -31t-31 -13t-31 13t-13 31t13 31t31 13zM676 295q0 139 -79.5 228t-203.5 89q-51 0 -93 -18t-70 -47t-47 -67t-27.5 -76.5t-8.5 -75.5q0 -139 83 -229t205 -90 q115 0 178 85t63 201zM770 328q0 -149 -104 -246.5t-252 -97.5q-151 0 -256 88t-105 225q0 149 103 244.5t263 95.5q144 0 247.5 -88t103.5 -221z"/>
<glyph glyph-name="multiply" horiz-adv-x="667" unicode="×" d="M333 289l-206 -206l-32 32l206 206l-206 206l32 32l206 -206l207 207l33 -33l-207 -207l206 -206l-32 -32z"/>
<glyph glyph-name="Oslash" horiz-adv-x="823" unicode="Ø" d="M605 513l-368 -420q80 -84 193 -84q66 0 116 26.5t77.5 70.5t40.5 91.5t13 97.5q0 132 -72 218zM224 107l368 421q-78 84 -203 84q-75 0 -131 -42.5t-83 -107t-27 -137.5q0 -129 76 -218zM633 575l79 90l14 -14l-76 -89q121 -90 121 -237t-104 -244t-253 -97 q-121 0 -217 61l-96 -108l-14 12l93 107q-126 90 -126 246q0 136 99.5 235.5t262.5 99.5q123 0 217 -62z"/>
<glyph glyph-name="Ugrave" horiz-adv-x="792" unicode="Ù" d="M545 622h235v-19q-50 -1 -70.5 -22t-20.5 -70v-270q0 -49 -16.5 -93t-50 -81.5t-92.5 -60t-137 -22.5q-139 0 -214 70t-75 182v292q0 47 -17 60.5t-69 14.5v19h257v-19h-9q-43 0 -61 -15.5t-18 -57.5v-278q0 -102 58.5 -159t169.5 -57q46 0 84 10.5t72 34t53 67.5t19 105 v233q0 72 -18 93t-80 24v19zM474 701l-106 71q-68 45 -68 71q0 13 8.5 21t22.5 8q31 0 64 -44l92 -127h-13z"/>
<glyph glyph-name="Uacute" horiz-adv-x="792" unicode="Ú" d="M545 622h235v-19q-50 -1 -70.5 -22t-20.5 -70v-270q0 -49 -16.5 -93t-50 -81.5t-92.5 -60t-137 -22.5q-139 0 -214 70t-75 182v292q0 47 -17 60.5t-69 14.5v19h257v-19h-9q-43 0 -61 -15.5t-18 -57.5v-278q0 -102 58.5 -159t169.5 -57q46 0 84 10.5t72 34t53 67.5t19 105 v233q0 72 -18 93t-80 24v19zM313 701h-13l92 127q33 44 64 44q14 0 22.5 -8t8.5 -21q0 -26 -68 -71z"/>
<glyph glyph-name="Ucircumflex" horiz-adv-x="792" unicode="Û" d="M545 622h235v-19q-50 -1 -70.5 -22t-20.5 -70v-270q0 -49 -16.5 -93t-50 -81.5t-92.5 -60t-137 -22.5q-139 0 -214 70t-75 182v292q0 47 -17 60.5t-69 14.5v19h257v-19h-9q-43 0 -61 -15.5t-18 -57.5v-278q0 -102 58.5 -159t169.5 -57q46 0 84 10.5t72 34t53 67.5t19 105 v233q0 72 -18 93t-80 24v19zM394 824l-118 -125v17l108 180h28l106 -180v-17z"/>
<glyph glyph-name="Udieresis" horiz-adv-x="792" unicode="Ü" d="M545 622h235v-19q-50 -1 -70.5 -22t-20.5 -70v-270q0 -49 -16.5 -93t-50 -81.5t-92.5 -60t-137 -22.5q-139 0 -214 70t-75 182v292q0 47 -17 60.5t-69 14.5v19h257v-19h-9q-43 0 -61 -15.5t-18 -57.5v-278q0 -102 58.5 -159t169.5 -57q46 0 84 10.5t72 34t53 67.5t19 105 v233q0 72 -18 93t-80 24v19zM300 816q18 0 31 -13t13 -31t-13 -31t-31 -13t-31 13t-13 31t13 31t31 13zM494 816q18 0 31 -13t13 -31t-13 -31t-31 -13t-31 13t-13 31t13 31t31 13z"/>
<glyph glyph-name="Yacute" horiz-adv-x="708" unicode="Ý" d="M371 291l141 240q15 27 15 42q0 30 -66 30v19h226v-19q-48 -4 -75 -22.5t-50 -56.5l-166 -281v-150q0 -40 17.5 -57t62.5 -17h13v-19h-275v19h19q45 0 62.5 17t17.5 55v141l-178 278q-36 57 -62 74t-75 19v19h266v-19q-70 0 -70 -26q0 -13 17 -39zM271 701h-13l92 127 q33 44 64 44q14 0 22.5 -8t8.5 -21q0 -26 -68 -71z"/>
<glyph glyph-name="Thorn" horiz-adv-x="563" unicode="Þ" d="M200 476v-318q35 -8 54 -8q81 0 130 49t49 126q0 155 -164 155q-45 0 -69 -4zM117 77v468q0 35 -14 46.5t-53 11.5h-14v19h245v-19h-14q-39 0 -53 -11.5t-14 -46.5v-48q56 2 70 2q74 0 127.5 -16.5t80 -44t38 -56t11.5 -60.5q0 -88 -65.5 -139.5t-176.5 -51.5 q-45 0 -85 8v-43q0 -42 17 -59.5t63 -17.5h33v-19h-277v19h14q39 0 53 11.5t14 46.5z"/>
<glyph glyph-name="germandbls" d="M235 354v15q67 7 103.5 45t36.5 101q0 59 -31 96t-81 37q-52 0 -81.5 -42.5t-29.5 -109.5v-415q0 -38 14 -50t51 -12v-19h-197v19q39 0 52 10.5t13 41.5v365q0 119 54.5 177.5t134.5 58.5q71 0 119.5 -43t48.5 -105q0 -52 -37 -93t-104 -64v-2q71 -15 122.5 -61.5 t51.5 -123.5q0 -91 -55.5 -141.5t-112.5 -50.5q-20 0 -33 9t-13 23q0 11 7 19t16 8q10 0 29.5 -11t31.5 -11q23 0 39 39.5t16 98.5q0 108 -47 155q-36 36 -118 36z" unicode="ß"/>
<glyph glyph-name="agrave" horiz-adv-x="396" unicode="à" d="M243 67v119q-21 -12 -59 -28q-51 -21 -67.5 -34t-16.5 -42q0 -26 17.5 -42.5t41.5 -16.5q21 0 84 44zM113 310l-68 -33q-3 9 -3 14q0 29 51 72.5t97 43.5q26 0 56 -13t49 -40q11 -15 13 -29.5t2 -56.5v-134q0 -80 8 -91q5 -7 18 -7q23 0 49 22l5 -15q-68 -55 -99 -55 q-42 0 -46 61q-48 -39 -70.5 -50t-45.5 -11q-43 0 -68 22.5t-25 59.5q0 42 30.5 63t87.5 35q43 10 89 38v79q0 44 -17 64q-24 29 -56 29q-24 0 -43 -16t-19 -33q0 -8 5 -19zM276 488l-106 71q-68 45 -68 71q0 13 8.5 21t22.5 8q31 0 64 -44l92 -127h-13z"/>
<glyph glyph-name="aacute" horiz-adv-x="396" unicode="á" d="M243 67v119q-21 -12 -59 -28q-51 -21 -67.5 -34t-16.5 -42q0 -26 17.5 -42.5t41.5 -16.5q21 0 84 44zM113 310l-68 -33q-3 9 -3 14q0 29 51 72.5t97 43.5q26 0 56 -13t49 -40q11 -15 13 -29.5t2 -56.5v-134q0 -80 8 -91q5 -7 18 -7q23 0 49 22l5 -15q-68 -55 -99 -55 q-42 0 -46 61q-48 -39 -70.5 -50t-45.5 -11q-43 0 -68 22.5t-25 59.5q0 42 30.5 63t87.5 35q43 10 89 38v79q0 44 -17 64q-24 29 -56 29q-24 0 -43 -16t-19 -33q0 -8 5 -19zM115 488h-13l92 127q33 44 64 44q14 0 22.5 -8t8.5 -21q0 -26 -68 -71z"/>
<glyph glyph-name="acircumflex" horiz-adv-x="396" unicode="â" d="M243 67v119q-21 -12 -59 -28q-51 -21 -67.5 -34t-16.5 -42q0 -26 17.5 -42.5t41.5 -16.5q21 0 84 44zM113 310l-68 -33q-3 9 -3 14q0 29 51 72.5t97 43.5q26 0 56 -13t49 -40q11 -15 13 -29.5t2 -56.5v-134q0 -80 8 -91q5 -7 18 -7q23 0 49 22l5 -15q-68 -55 -99 -55 q-42 0 -46 61q-48 -39 -70.5 -50t-45.5 -11q-43 0 -68 22.5t-25 59.5q0 42 30.5 63t87.5 35q43 10 89 38v79q0 44 -17 64q-24 29 -56 29q-24 0 -43 -16t-19 -33q0 -8 5 -19zM196 611l-118 -125v17l108 180h28l106 -180v-17z"/>
<glyph glyph-name="atilde" horiz-adv-x="396" unicode="ã" d="M243 67v119q-21 -12 -59 -28q-51 -21 -67.5 -34t-16.5 -42q0 -26 17.5 -42.5t41.5 -16.5q21 0 84 44zM113 310l-68 -33q-3 9 -3 14q0 29 51 72.5t97 43.5q26 0 56 -13t49 -40q11 -15 13 -29.5t2 -56.5v-134q0 -80 8 -91q5 -7 18 -7q23 0 49 22l5 -15q-68 -55 -99 -55 q-42 0 -46 61q-48 -39 -70.5 -50t-45.5 -11q-43 0 -68 22.5t-25 59.5q0 42 30.5 63t87.5 35q43 10 89 38v79q0 44 -17 64q-24 29 -56 29q-24 0 -43 -16t-19 -33q0 -8 5 -19zM75 508h-11q0 55 21.5 83.5t59.5 28.5q29 0 71 -30q45 -31 60 -31q42 0 46 61h11q1 -5 1 -15 q0 -42 -23.5 -69t-54.5 -27q-26 0 -71 31q-42 30 -61 30q-41 0 -49 -62z"/>
<glyph glyph-name="adieresis" horiz-adv-x="396" unicode="ä" d="M82 603q18 0 31 -13t13 -31t-13 -31t-31 -13t-31 13t-13 31t13 31t31 13zM276 603q18 0 31 -13t13 -31t-13 -31t-31 -13t-31 13t-13 31t13 31t31 13zM243 67v119q-21 -12 -59 -28q-51 -21 -67.5 -34t-16.5 -42q0 -26 17.5 -42.5t41.5 -16.5q21 0 84 44zM113 310l-68 -33 q-3 9 -3 14q0 29 51 72.5t97 43.5q26 0 56 -13t49 -40q11 -15 13 -29.5t2 -56.5v-134q0 -80 8 -91q5 -7 18 -7q23 0 49 22l5 -15q-68 -55 -99 -55q-42 0 -46 61q-48 -39 -70.5 -50t-45.5 -11q-43 0 -68 22.5t-25 59.5q0 42 30.5 63t87.5 35q43 10 89 38v79q0 44 -17 64 q-24 29 -56 29q-24 0 -43 -16t-19 -33q0 -8 5 -19z"/>
<glyph glyph-name="aring" horiz-adv-x="396" unicode="å" d="M243 67v119q-21 -12 -59 -28q-51 -21 -67.5 -34t-16.5 -42q0 -26 17.5 -42.5t41.5 -16.5q21 0 84 44zM113 310l-68 -33q-3 9 -3 14q0 29 51 72.5t97 43.5q26 0 56 -13t49 -40q11 -15 13 -29.5t2 -56.5v-134q0 -80 8 -91q5 -7 18 -7q23 0 49 22l5 -15q-68 -55 -99 -55 q-42 0 -46 61q-48 -39 -70.5 -50t-45.5 -11q-43 0 -68 22.5t-25 59.5q0 42 30.5 63t87.5 35q43 10 89 38v79q0 44 -17 64q-24 29 -56 29q-24 0 -43 -16t-19 -33q0 -8 5 -19zM199 620q-28 0 -47.5 -19.5t-19.5 -47.5t19.5 -47.5t47.5 -19.5t47.5 19.5t19.5 47.5t-19.5 47.5 t-47.5 19.5zM199 644q37 0 64 -27t27 -64t-27 -64t-64 -27t-64 27t-27 64t27 64t64 27z"/>
<glyph glyph-name="ae" horiz-adv-x="625" unicode="æ" d="M251 71v114q-23 -17 -77 -34q-38 -12 -55 -26t-17 -42q0 -27 16 -43.5t42 -16.5q46 0 91 48zM319 280h192q-7 46 -34.5 77t-58.5 31q-41 0 -75 -44q-19 -26 -24 -64zM595 254h-279v-24q0 -65 13 -101q13 -40 48 -65t76 -25q34 0 61 14t58 47l12 -12q-85 -100 -168 -100 q-88 0 -140 86q-34 -40 -75 -63t-76 -23q-38 0 -63.5 23.5t-25.5 57.5q0 24 7.5 39.5t28 27t38.5 17t57 15.5q47 12 84 37v72q0 30 -3.5 43.5t-14.5 26.5q-24 29 -56 29q-27 0 -46 -15.5t-19 -37.5q0 -5 2 -12l1 -4l-66 -30q-4 6 -4 14q0 33 62 80q49 36 87 36q32 0 63 -17 t47 -43q54 60 126 60q47 0 78 -16.5t42.5 -35.5t23.5 -44t21 -34v-23z"/>
<glyph glyph-name="ccedilla" horiz-adv-x="427" unicode="ç" d="M376 101l15 -9q-64 -101 -171 -104l-22 -37q4 1 11 1q28 0 47 -23t19 -52q0 -36 -25 -61t-60 -25q-19 0 -43 8l7 14q13 -4 26 -4q22 0 37.5 15t15.5 36q0 36 -32 36q-22 0 -64 -20l68 113q-78 4 -118.5 64t-40.5 128q0 94 67.5 160t162.5 66q47 0 79.5 -16.5t32.5 -40.5 q0 -13 -8.5 -21.5t-20.5 -8.5q-24 0 -56 30.5t-61 30.5q-52 0 -90.5 -53t-38.5 -125q0 -75 40 -124.5t101 -49.5q70 0 122 72z"/>
<glyph glyph-name="egrave" horiz-adv-x="438" unicode="è" d="M117 280h205q-8 49 -35.5 78.5t-63.5 29.5q-79 0 -106 -108zM406 254h-292q-4 -30 -4 -42q0 -76 45.5 -125t106.5 -49q72 0 127 65l11 -12q-82 -103 -178 -103q-74 0 -124 59t-50 146q0 85 53 149.5t140 64.5q47 0 78 -16.5t42.5 -35.5t23.5 -44t21 -34v-23zM297 488 l-106 71q-68 45 -68 71q0 13 8.5 21t22.5 8q31 0 64 -44l92 -127h-13z"/>
<glyph glyph-name="eacute" horiz-adv-x="438" unicode="é" d="M117 280h205q-8 49 -35.5 78.5t-63.5 29.5q-79 0 -106 -108zM406 254h-292q-4 -30 -4 -42q0 -76 45.5 -125t106.5 -49q72 0 127 65l11 -12q-82 -103 -178 -103q-74 0 -124 59t-50 146q0 85 53 149.5t140 64.5q47 0 78 -16.5t42.5 -35.5t23.5 -44t21 -34v-23zM136 488h-13 l92 127q33 44 64 44q14 0 22.5 -8t8.5 -21q0 -26 -68 -71z"/>
<glyph glyph-name="ecircumflex" horiz-adv-x="438" unicode="ê" d="M117 280h205q-8 49 -35.5 78.5t-63.5 29.5q-79 0 -106 -108zM406 254h-292q-4 -30 -4 -42q0 -76 45.5 -125t106.5 -49q72 0 127 65l11 -12q-82 -103 -178 -103q-74 0 -124 59t-50 146q0 85 53 149.5t140 64.5q47 0 78 -16.5t42.5 -35.5t23.5 -44t21 -34v-23zM217 611 l-118 -125v17l108 180h28l106 -180v-17z"/>
<glyph glyph-name="edieresis" horiz-adv-x="438" unicode="ë" d="M123 603q18 0 31 -13t13 -31t-13 -31t-31 -13t-31 13t-13 31t13 31t31 13zM317 603q18 0 31 -13t13 -31t-13 -31t-31 -13t-31 13t-13 31t13 31t31 13zM117 280h205q-8 49 -35.5 78.5t-63.5 29.5q-79 0 -106 -108zM406 254h-292q-4 -30 -4 -42q0 -76 45.5 -125t106.5 -49 q72 0 127 65l11 -12q-82 -103 -178 -103q-74 0 -124 59t-50 146q0 85 53 149.5t140 64.5q47 0 78 -16.5t42.5 -35.5t23.5 -44t21 -34v-23z"/>
<glyph glyph-name="igrave" horiz-adv-x="260" unicode="ì" d="M168 412v-336q0 -57 72 -57v-19h-222v19q46 0 64.5 16.5t18.5 56.5v201q0 29 -5.5 37t-25.5 12l-47 9v16l130 45h15zM208 488l-106 71q-68 45 -68 71q0 13 8.5 21t22.5 8q31 0 64 -44l92 -127h-13z"/>
<glyph glyph-name="iacute" horiz-adv-x="260" unicode="í" d="M168 412v-336q0 -57 72 -57v-19h-222v19q46 0 64.5 16.5t18.5 56.5v201q0 29 -5.5 37t-25.5 12l-47 9v16l130 45h15zM47 488h-13l92 127q33 44 64 44q14 0 22.5 -8t8.5 -21q0 -26 -68 -71z"/>
<glyph glyph-name="icircumflex" horiz-adv-x="260" unicode="î" d="M168 412v-336q0 -57 72 -57v-19h-222v19q46 0 64.5 16.5t18.5 56.5v201q0 29 -5.5 37t-25.5 12l-47 9v16l130 45h15zM128 611l-118 -125v17l108 180h28l106 -180v-17z"/>
<glyph glyph-name="idieresis" horiz-adv-x="260" unicode="ï" d="M168 412v-336q0 -57 72 -57v-19h-222v19q46 0 64.5 16.5t18.5 56.5v201q0 29 -5.5 37t-25.5 12l-47 9v16l130 45h15zM34 603q18 0 31 -13t13 -31t-13 -31t-31 -13t-31 13t-13 31t13 31t31 13zM228 603q18 0 31 -13t13 -31t-13 -31t-31 -13t-31 13t-13 31t13 31t31 13z "/>
<glyph glyph-name="eth" d="M437 619l-116 -60q77 -66 116 -160t39 -164q0 -58 -16 -104t-39 -72t-53.5 -43t-55.5 -22.5t-48 -5.5q-93 0 -156 59.5t-63 147.5q0 98 65.5 155t150.5 57q59 0 106 -36l2 2q-32 92 -99 160l-128 -66l-9 17l123 63q-44 43 -98 68l13 22q78 -21 133 -65l125 65zM120 229 q0 -91 46 -154t113 -63q51 0 90.5 44.5t39.5 115.5q0 86 -46 148.5t-112 62.5q-53 0 -92 -45t-39 -109z" unicode="ð"/>
<glyph glyph-name="ntilde" d="M160 304v-217q0 -41 13 -54.5t54 -13.5v-19h-201v19q33 0 50 16.5t17 46.5v210q0 28 -5.5 36.5t-24.5 12.5l-34 7v16l115 42h16v-78q48 30 66.5 41t50.5 24.5t55 13.5q107 0 107 -150q0 -79 -4 -135t-4 -65q0 -38 56 -38h22v-19h-215v19q39 1 57 19q13 13 17 63t4 162 q0 56 -22.5 80.5t-56.5 24.5q-41 0 -133 -64zM137 508h-11q0 55 21.5 83.5t59.5 28.5q29 0 71 -30q45 -31 60 -31q42 0 46 61h11q1 -5 1 -15q0 -42 -23.5 -69t-54.5 -27q-26 0 -71 31q-42 30 -61 30q-41 0 -49 -62z" unicode="ñ"/>
<glyph glyph-name="ograve" d="M120 229q0 -91 45 -154t110 -63q48 0 87 44.5t39 115.5q0 86 -45.5 148.5t-108.5 62.5q-50 0 -88.5 -45.5t-38.5 -108.5zM45 195q0 98 65.5 155t150.5 57q91 0 153 -60.5t62 -149.5q0 -88 -61.5 -148.5t-150.5 -60.5q-93 0 -156 59.5t-63 147.5zM338 488l-106 71 q-68 45 -68 71q0 13 8.5 21t22.5 8q31 0 64 -44l92 -127h-13z" unicode="ò"/>
<glyph glyph-name="oacute" d="M120 229q0 -91 45 -154t110 -63q48 0 87 44.5t39 115.5q0 86 -45.5 148.5t-108.5 62.5q-50 0 -88.5 -45.5t-38.5 -108.5zM45 195q0 98 65.5 155t150.5 57q91 0 153 -60.5t62 -149.5q0 -88 -61.5 -148.5t-150.5 -60.5q-93 0 -156 59.5t-63 147.5zM177 488h-13l92 127 q33 44 64 44q14 0 22.5 -8t8.5 -21q0 -26 -68 -71z" unicode="ó"/>
<glyph glyph-name="ocircumflex" d="M120 229q0 -91 45 -154t110 -63q48 0 87 44.5t39 115.5q0 86 -45.5 148.5t-108.5 62.5q-50 0 -88.5 -45.5t-38.5 -108.5zM45 195q0 98 65.5 155t150.5 57q91 0 153 -60.5t62 -149.5q0 -88 -61.5 -148.5t-150.5 -60.5q-93 0 -156 59.5t-63 147.5zM258 611l-118 -125v17 l108 180h28l106 -180v-17z" unicode="ô"/>
<glyph glyph-name="otilde" d="M120 229q0 -91 45 -154t110 -63q48 0 87 44.5t39 115.5q0 86 -45.5 148.5t-108.5 62.5q-50 0 -88.5 -45.5t-38.5 -108.5zM45 195q0 98 65.5 155t150.5 57q91 0 153 -60.5t62 -149.5q0 -88 -61.5 -148.5t-150.5 -60.5q-93 0 -156 59.5t-63 147.5zM137 508h-11 q0 55 21.5 83.5t59.5 28.5q29 0 71 -30q45 -31 60 -31q42 0 46 61h11q1 -5 1 -15q0 -42 -23.5 -69t-54.5 -27q-26 0 -71 31q-42 30 -61 30q-41 0 -49 -62z" unicode="õ"/>
<glyph glyph-name="odieresis" d="M164 603q18 0 31 -13t13 -31t-13 -31t-31 -13t-31 13t-13 31t13 31t31 13zM358 603q18 0 31 -13t13 -31t-13 -31t-31 -13t-31 13t-13 31t13 31t31 13zM120 229q0 -91 45 -154t110 -63q48 0 87 44.5t39 115.5q0 86 -45.5 148.5t-108.5 62.5q-50 0 -88.5 -45.5 t-38.5 -108.5zM45 195q0 98 65.5 155t150.5 57q91 0 153 -60.5t62 -149.5q0 -88 -61.5 -148.5t-150.5 -60.5q-93 0 -156 59.5t-63 147.5z" unicode="ö"/>
<glyph glyph-name="divide" horiz-adv-x="667" unicode="÷" d="M334 148q13 0 22.5 -9.5t9.5 -22.5t-9.5 -23t-22.5 -10t-23 10t-10 23t10 22.5t23 9.5zM334 557q13 0 22.5 -10t9.5 -23t-9.5 -22.5t-22.5 -9.5t-23 9.5t-10 22.5t10 23t23 10zM71 342h525v-44h-525v44z"/>
<glyph glyph-name="oslash" d="M366 303l-200 -229q15 -22 44 -42t64 -20q15 0 35 8t41.5 24.5t36 50t14.5 77.5q0 71 -35 131zM155 90l201 230q-46 63 -109 63q-53 0 -90 -47t-37 -110q0 -75 35 -136zM394 364l57 64l14 -12l-57 -65q68 -63 68 -154q0 -95 -64.5 -152t-148.5 -57q-74 0 -135 43l-68 -78 l-14 13l68 77q-69 60 -69 153q0 94 65 152.5t150 58.5q73 0 134 -43z" unicode="ø"/>
<glyph glyph-name="ugrave" d="M497 47v-18l-134 -41v80q-111 -80 -170 -80q-41 0 -73.5 27t-32.5 75v222q0 18 -6 27.5t-21 13.5l-35 10v15l129 28v-280q0 -44 26.5 -67t63.5 -23q53 0 119 55v215q0 29 -6.5 39t-30.5 14l-50 9v14l154 24v-337q0 -29 23 -29q9 0 23 3zM338 488l-106 71q-68 45 -68 71 q0 13 8.5 21t22.5 8q31 0 64 -44l92 -127h-13z" unicode="ù"/>
<glyph glyph-name="uacute" d="M497 47v-18l-134 -41v80q-111 -80 -170 -80q-41 0 -73.5 27t-32.5 75v222q0 18 -6 27.5t-21 13.5l-35 10v15l129 28v-280q0 -44 26.5 -67t63.5 -23q53 0 119 55v215q0 29 -6.5 39t-30.5 14l-50 9v14l154 24v-337q0 -29 23 -29q9 0 23 3zM177 488h-13l92 127q33 44 64 44 q14 0 22.5 -8t8.5 -21q0 -26 -68 -71z" unicode="ú"/>
<glyph glyph-name="ucircumflex" d="M497 47v-18l-134 -41v80q-111 -80 -170 -80q-41 0 -73.5 27t-32.5 75v222q0 18 -6 27.5t-21 13.5l-35 10v15l129 28v-280q0 -44 26.5 -67t63.5 -23q53 0 119 55v215q0 29 -6.5 39t-30.5 14l-50 9v14l154 24v-337q0 -29 23 -29q9 0 23 3zM258 611l-118 -125v17l108 180h28 l106 -180v-17z" unicode="û"/>
<glyph glyph-name="udieresis" d="M497 47v-18l-134 -41v80q-111 -80 -170 -80q-41 0 -73.5 27t-32.5 75v222q0 18 -6 27.5t-21 13.5l-35 10v15l129 28v-280q0 -44 26.5 -67t63.5 -23q53 0 119 55v215q0 29 -6.5 39t-30.5 14l-50 9v14l154 24v-337q0 -29 23 -29q9 0 23 3zM164 603q18 0 31 -13t13 -31 t-13 -31t-31 -13t-31 13t-13 31t13 31t31 13zM358 603q18 0 31 -13t13 -31t-13 -31t-31 -13t-31 13t-13 31t13 31t31 13z" unicode="ü"/>
<glyph glyph-name="yacute" horiz-adv-x="469" unicode="ý" d="M261 73l85 212q14 37 14 55q0 21 -15 29t-47 9v18h166v-18q-53 -6 -83 -80l-170 -424q-23 -58 -43 -82.5t-45 -24.5q-18 0 -29.5 10t-11.5 25q0 18 15 26t37 14.5t31 15.5q19 19 34 57l30 75l-155 329q-15 32 -31.5 45t-47.5 14v18h201v-18q-58 -1 -58 -28q0 -11 10 -33z M151 488h-13l92 127q33 44 64 44q14 0 22.5 -8t8.5 -21q0 -26 -68 -71z"/>
<glyph glyph-name="thorn" horiz-adv-x="500" unicode="þ" d="M150 306v-226q59 -56 118 -56q51 0 84.5 44.5t33.5 110.5q0 74 -38 125t-93 51q-48 0 -105 -49zM150 672v-341q99 73 155 73q58 0 103 -56t45 -130q0 -91 -63 -158t-149 -67q-37 0 -91 20v-162q0 -36 17 -50.5t50 -14.5h25v-19h-236v19h10q38 0 52.5 15.5t14.5 58.5v709 q0 21 -5.5 29.5t-26.5 10.5l-44 5v17l128 41h15z"/>
<glyph glyph-name="OE" horiz-adv-x="990" unicode="Œ" d="M526 156v338q0 54 -37.5 82t-104.5 28q-120 0 -180 -78t-60 -203q0 -131 72 -218t177 -87q21 0 41 5t42.5 18.5t36 43t13.5 71.5zM858 415v-190h-19q-6 50 -20.5 64.5t-47.5 14.5h-162v-268h200q51 0 74 23.5t42 89.5h18l-16 -149h-399q-9 0 -23.5 -0.5t-33.5 -1.5 t-31 -1q-66 -4 -74 -4q-75 0 -144.5 36.5t-117 110t-47.5 167.5q0 50 18 102.5t55 103.5t106.5 83.5t160.5 32.5q23 0 93 -4q102 -3 108 -3h298l8 -139h-18q-9 63 -26.5 83t-47.5 20h-203v-246h172q28 0 41 16.5t17 58.5h19z"/>
<glyph glyph-name="oe" horiz-adv-x="740" unicode="œ" d="M377 173q0 92 -38.5 151t-97.5 59q-41 0 -80.5 -44t-39.5 -116q0 -90 47 -150.5t102 -60.5q50 0 78.5 42.5t28.5 118.5zM440 280h177q0 51 -23.5 79.5t-60.5 28.5q-36 0 -66 -38q-22 -29 -27 -70zM709 254h-271q0 -3 -0.5 -9.5t-0.5 -9.5q0 -89 40.5 -146.5t95.5 -57.5 q26 0 51.5 17t66.5 54l10 -11q-94 -103 -172 -103q-70 0 -116 73q-54 -73 -152 -73q-92 0 -153.5 60.5t-61.5 150.5q0 87 62.5 147.5t150.5 60.5q94 0 143 -74q61 74 146 74q44 0 73.5 -15.5t41 -34t24.5 -44.5t22 -36v-23z"/>
<glyph glyph-name="Scaron" horiz-adv-x="490" unicode="Š" d="M44 152h19q15 -65 62 -103t107 -38q55 0 96.5 31t41.5 87q0 39 -33 75t-80 65.5t-94.5 60t-80.5 72.5t-33 90q0 62 51 103.5t127 41.5q48 0 86.5 -12.5t49.5 -12.5t18 10h16l17 -127h-17q-21 54 -65 86t-96 32q-50 0 -81 -26t-31 -68q0 -39 33 -74t80 -63.5t94.5 -59 t80.5 -73.5t33 -94q0 -74 -58 -122.5t-146 -48.5q-33 0 -85 13.5t-54 13.5q-13 0 -20 -11h-17zM248 771l118 125v-17l-108 -180h-28l-106 180v17z"/>
<glyph glyph-name="scaron" horiz-adv-x="302" unicode="š" d="M32 101h16q9 -44 35 -69t60 -25q30 0 50.5 19.5t20.5 46.5q0 29 -32 61q-25 25 -67.5 52t-62.5 49.5t-20 59.5q0 50 35.5 81t92.5 31q40 0 80 -16l2 -91h-17q-5 38 -27.5 60.5t-52.5 22.5q-25 0 -43 -16t-18 -40t19 -45t46.5 -37.5t55 -35t46.5 -46t19 -61.5 q0 -49 -35.5 -81.5t-88.5 -32.5q-25 0 -44 7q-22 6 -27 6q-9 0 -17 -12h-15zM154 558l118 125v-17l-108 -180h-28l-106 180v17z"/>
<glyph glyph-name="Ydieresis" horiz-adv-x="708" unicode="Ÿ" d="M371 291l141 240q15 27 15 42q0 30 -66 30v19h226v-19q-48 -4 -75 -22.5t-50 -56.5l-166 -281v-150q0 -40 17.5 -57t62.5 -17h13v-19h-275v19h19q45 0 62.5 17t17.5 55v141l-178 278q-36 57 -62 74t-75 19v19h266v-19q-70 0 -70 -26q0 -13 17 -39zM258 816q18 0 31 -13 t13 -31t-13 -31t-31 -13t-31 13t-13 31t13 31t31 13zM452 816q18 0 31 -13t13 -31t-13 -31t-31 -13t-31 13t-13 31t13 31t31 13z"/>
<glyph glyph-name="circumflex" horiz-adv-x="333" unicode="ˆ" d="M164 611l-118 -125v17l108 180h28l106 -180v-17z"/>
<glyph glyph-name="tilde" horiz-adv-x="333" unicode="˜" d="M43 508h-11q0 55 21.5 83.5t59.5 28.5q29 0 71 -30q45 -31 60 -31q42 0 46 61h11q1 -5 1 -15q0 -42 -23.5 -69t-54.5 -27q-26 0 -71 31q-42 30 -61 30q-41 0 -49 -62z"/>
<glyph glyph-name="uni03BC" horiz-adv-x="500" unicode="μ" d="M57 396h67v-216q0 -78 17 -108.5t64 -30.5q70 0 130 70v285h67v-301q0 -26 10 -41t24 -15q30 0 39 60h21q-2 -51 -25.5 -82t-60.5 -31q-31 0 -52.5 25t-22.5 68q-93 -93 -166 -93q-26 0 -42.5 9t-33.5 33q-1 -9 -1 -26q0 -33 11.5 -87.5t11.5 -77.5q0 -22 -13 -37.5 t-32 -15.5t-31 14.5t-12 38.5q0 19 15 81.5t15 117.5v360z"/>
<glyph glyph-name="pi" horiz-adv-x="496" unicode="π" d="M450 428l20 -8q-11 -46 -31 -73q-19 -4 -62 -4q-4 -39 -4 -160v-63q0 -84 40 -84q22 0 46 30l12 -17q-32 -60 -88 -60q-36 0 -55.5 25.5t-19.5 89.5q0 74 9 241q-106 2 -145 2v-19q0 -94 -12.5 -171t-25 -109t-21.5 -43q-29 -14 -50 -16l-6 14q45 56 64.5 155t19.5 190 h-5q-27 0 -49 -7t-31 -13t-31 -22l-12 17q2 2 5 6q18 22 30 33.5t42.5 25t67.5 13.5h3q15 0 51.5 -0.5t57.5 -0.5q80 -2 126 -2q21 0 32 5.5t22 24.5z"/>
<glyph glyph-name="endash" horiz-adv-x="500" unicode="–" d="M-6 271h512v-44h-512v44z"/>
<glyph glyph-name="emdash" horiz-adv-x="1000" unicode="—" d="M-6 271h1012v-44h-1012v44z"/>
<glyph glyph-name="quoteleft" horiz-adv-x="260" unicode="‘" d="M179 660l7 -18q-77 -45 -77 -100q0 -21 14 -21q4 0 11 1.5t13 1.5q19 0 32 -13t13 -32q0 -20 -16 -34.5t-38 -14.5q-30 0 -50 23.5t-20 59.5q0 47 31 87.5t80 59.5z"/>
<glyph glyph-name="quotesinglbase" horiz-adv-x="260" unicode="‚" d="M81 -148l-7 18q77 45 77 100q0 21 -14 21q-2 0 -6 -0.5t-5 -0.5q-8 -2 -13 -2q-19 0 -32 13t-13 32q0 20 16 34.5t38 14.5q30 0 50 -23.5t20 -59.5q0 -47 -31 -87.5t-80 -59.5z"/>
<glyph glyph-name="quotedblleft" horiz-adv-x="479" unicode="“" d="M171 660l7 -18q-77 -45 -77 -100q0 -21 14 -21q4 0 11 1.5t13 1.5q19 0 32 -13t13 -32q0 -20 -16 -34.5t-38 -14.5q-30 0 -50 23.5t-20 59.5q0 47 31 87.5t80 59.5zM398 660l7 -18q-77 -45 -77 -100q0 -21 14 -21q4 0 11 1.5t13 1.5q20 0 32.5 -13t12.5 -32 q0 -20 -16 -34.5t-38 -14.5q-30 0 -50 23.5t-20 59.5q0 47 31 87.5t80 59.5z"/>
<glyph glyph-name="quotedblright" horiz-adv-x="479" unicode="”" d="M81 430l-7 18q77 45 77 100q0 21 -14 21q-4 0 -11 -1.5t-13 -1.5q-19 0 -32 13t-13 32q0 20 16 34.5t38 14.5q30 0 50 -23.5t20 -59.5q0 -47 -31 -87.5t-80 -59.5zM308 430l-7 18q77 45 77 100q0 21 -14 21q-4 0 -11 -1.5t-13 -1.5q-20 0 -32.5 13t-12.5 32q0 20 16 34.5 t38 14.5q30 0 50 -23.5t20 -59.5q0 -47 -31 -87.5t-80 -59.5z"/>
<glyph glyph-name="dagger" horiz-adv-x="500" unicode="†" d="M234 373l-188 -26h-5q-14 0 -14 21v49q0 11 4 15.5t10 3.5l193 -28l-28 223q-3 19 16 19h45q28 0 28 -11q0 -1 -0.5 -3t-0.5 -4l-27 -224l188 27h6q13 0 13 -24v-41q0 -23 -12 -23h-2l-193 26l32 -568q1 -20 -13 -20h-67q-11 0 -14.5 4t-2.5 17z"/>
<glyph glyph-name="daggerdbl" d="M298 219l-19 -187l180 25q3 1 9 1q16 0 16 -21v-43q0 -24 -13 -24h-5l-187 26l25 -185v-6q0 -17 -19 -17h-48q-20 0 -20 15q0 6 1 9l25 184l-186 -26h-4q-16 0 -16 18v49q0 21 16 21q1 0 3 -0.5t4 -0.5l183 -25l-19 187l19 187l-183 -25q-2 0 -4 -0.5t-3 -0.5 q-16 0 -16 21v49q0 18 16 18h4l186 -26l-25 184q-1 3 -1 9q0 15 20 15h48q19 0 19 -17v-6l-25 -185l187 26h5q13 0 13 -24v-43q0 -21 -16 -21q-6 0 -9 1l-180 25z" unicode="‡"/>
<glyph glyph-name="ellipsis" horiz-adv-x="1000" unicode="…" d="M167 82q22 0 36.5 -13t14.5 -34q0 -22 -14.5 -34.5t-36.5 -12.5t-36.5 13t-14.5 34t14.5 34t36.5 13zM500 82q22 0 36.5 -13t14.5 -34q0 -22 -14.5 -34.5t-36.5 -12.5t-36.5 13t-14.5 34t14.5 34t36.5 13zM833 82q22 0 36.5 -13t14.5 -34q0 -22 -14.5 -34.5t-36.5 -12.5 t-36.5 13t-14.5 34t14.5 34t36.5 13z"/>
<glyph glyph-name="perthousand" horiz-adv-x="1000" unicode="‰" d="M125 -27h-42l486 681h41zM476 162q0 -154 72 -154q73 0 73 154t-73 154q-72 0 -72 -154zM420 162q0 71 37 120t91 49t91.5 -49t37.5 -120t-37.5 -120t-91.5 -49t-91 49t-37 120zM782 162q0 -154 72 -154q73 0 73 154t-73 154q-72 0 -72 -154zM726 162q0 71 37 120t91 49 t91.5 -49t37.5 -120t-37.5 -120t-91.5 -49t-91 49t-37 120zM72 468q0 -154 72 -154q73 0 73 154t-73 154q-72 0 -72 -154zM16 468q0 71 37 120t91 49t91.5 -49t37.5 -120t-37.5 -120t-91.5 -49t-91 49t-37 120z"/>
<glyph glyph-name="guilsinglleft" horiz-adv-x="229" unicode="‹" d="M104 219l95 -184h-18l-147 184l147 184h18z"/>
<glyph glyph-name="guilsinglright" horiz-adv-x="229" unicode="›" d="M125 219l-95 184h18l147 -184l-147 -184h-18z"/>
<glyph glyph-name="fraction" horiz-adv-x="115" unicode="⁄" d="M-165 -27h-41l486 681h41z"/>
<glyph glyph-name="Euro" horiz-adv-x="500" unicode="€" d="M509 119l15 -13q-84 -120 -190 -120q-41 0 -79.5 15.5t-74 47t-59.5 87.5t-30 128h-56l5 26h49q0 27 2 48h-56l5 26h53q15 117 81.5 195t165.5 78q53 0 125 -36q11 -4 16 -4l13 6h10l6 -142h-19q-42 150 -152 150q-70 0 -117.5 -63t-56.5 -184h305l-5 -26h-302 q0 -34 1 -48h291l-5 -26h-284q11 -105 62 -171.5t124 -66.5q75 0 157 93z"/>
<glyph glyph-name="trademark" horiz-adv-x="979" unicode="™" d="M566 662l133 -280l129 280h136v-18q-35 -1 -44 -12t-9 -55v-228q0 -41 8.5 -51.5t44.5 -12.5v-17h-195v17q38 1 48.5 12.5t10.5 51.5v240h-2l-148 -321h-16l-149 317h-2v-236q0 -40 9 -52t38 -12h18v-17h-151v17q36 0 46 11.5t10 52.5v228q0 45 -9.5 56t-46.5 11v18h141z M25 662h356l11 -98h-17q-6 38 -27 53.5t-67 15.5h-35v-284q0 -40 8.5 -51t41.5 -13v-17h-183v17q33 4 41.5 14.5t8.5 49.5v284h-39q-45 0 -64.5 -15t-27.5 -54h-17z"/>
<glyph glyph-name="partialdiff" horiz-adv-x="463" unicode="∂" d="M247 354h-1q-61 0 -100 -53q-40 -63 -40 -167q0 -50 25 -85t66 -35q65 0 107 96q29 63 44 175q-11 24 -39 46.5t-62 22.5zM231 388h1q33 0 67 -16.5t55 -49.5q6 60 7 96v9q0 72 -24 136q-15 38 -48 66.5t-74 28.5q-59 0 -119 -49h-1q-8 0 -16.5 13.5t-8.5 26.5q0 4 2 10 q56 37 123 37q114 0 178 -128q43 -85 43 -210q0 -139 -42 -231q-61 -139 -176 -139q-72 0 -115.5 48.5t-43.5 133.5q0 86 51 150q25 30 63 49t78 19z"/>
<glyph glyph-name="product" horiz-adv-x="597" unicode="∏" d="M571 628v-22q-56 -4 -68 -13t-12 -44v-540q0 -41 12.5 -52t65.5 -15v-21h-218v21q53 4 64 14t11 53v563q0 18 -5.5 23t-25.5 5h-196q-19 0 -24 -4.5t-5 -20.5v-566q0 -42 9.5 -52t59.5 -15v-21h-212v21q53 5 65 15t12 52v540q0 36 -12 44.5t-68 12.5v22h547z"/>
<glyph glyph-name="summation" horiz-adv-x="485" unicode="∑" d="M464 79l-38 -160h-400v19l200 322l-196 348v20h397q0 -8 1.5 -29t4.5 -56t4 -56l-22 -4q-10 60 -28 90q-9 16 -26.5 22t-65.5 6h-180l170 -298l-199 -325h233q58 0 76.5 16t45.5 92z"/>
<glyph glyph-name="minus" horiz-adv-x="667" unicode="−" d="M71 342h525v-44h-525v44z"/>
<glyph glyph-name="radical" horiz-adv-x="485" unicode="√" d="M467 808l-145 -938l-16 -9l-193 500l-77 -38l-9 28l130 62l154 -410h2l122 814z"/>
<glyph glyph-name="infinity" horiz-adv-x="669" unicode="∞" d="M495 353h-1q-20 0 -42.5 -12t-33 -21t-34.5 -35l-23 -26q47 -53 75 -74t60 -21q38 0 61.5 28.5t23.5 64.5q0 44 -24 70t-62 26zM178 164h2q11 0 22 2.5t22.5 9.5t18.5 11t19.5 16.5l16 16t17.5 19t15 16.5q-22 27 -30.5 36.5t-28 28.5t-38 26t-40.5 7q-40 0 -63 -28 t-23 -69q0 -39 25.5 -65.5t64.5 -26.5zM626 261v-1q0 -62 -39.5 -100.5t-93.5 -38.5q-39 0 -75 24t-82 78q-29 -33 -48 -51t-50.5 -34.5t-64.5 -16.5q-54 0 -92 39t-38 97q0 60 38.5 99t97.5 39q44 0 81 -26.5t79 -75.5q53 59 79 77q39 25 81 25q56 0 91.5 -37.5t35.5 -96.5 z"/>
<glyph glyph-name="approxequal" horiz-adv-x="479" unicode="≈" d="M411 236l29 -25q-42 -83 -111 -83q-38 0 -99 36q-52 29 -79 29t-46 -17t-38 -48l-30 25q19 39 50.5 61t68.5 22q15 0 30.5 -4t23.5 -8t23.5 -12.5t17.5 -9.5q3 -2 13 -8t13.5 -7.5t12 -5.5t13.5 -5.5t12.5 -3t15.5 -1.5q43 0 80 65zM411 384l29 -25q-42 -83 -111 -83 q-37 0 -99 35q-49 30 -79 30q-45 0 -84 -65l-30 24q19 39 50.5 61.5t68.5 22.5q12 0 23.5 -2t22.5 -6.5t17.5 -8t18 -10t14.5 -8.5t10.5 -6t10.5 -6t9 -5t9.5 -4.5t9 -3.5t10 -3t9.5 -1.5t11 -0.5q43 0 80 65z"/>
<glyph glyph-name="notequal" horiz-adv-x="479" unicode="≠" d="M341 445l-37 -84h131v-44h-149l-57 -125h206v-44h-224l-45 -100l-35 15l38 85h-126v44h144l56 125h-200v44h218l45 99z"/>
<glyph glyph-name="lessequal" horiz-adv-x="479" unicode="≤" d="M435 10h-391v46h391v-46zM433 91l-385 196v47l385 196v-54l-337 -164v-2l337 -165v-54z"/>
<glyph glyph-name="greaterequal" horiz-adv-x="479" unicode="≥" d="M434 10h-390v46h390v-46zM49 530l384 -196v-47l-384 -196v54l336 165v2l-336 164v54z"/>
<glyph glyph-name="lozenge" horiz-adv-x="490" unicode="◊" d="M396 304l-149 317h-3l-149 -316l150 -318h2zM446 304l-175 -365h-52l-175 365l176 367h51z"/>
</font>
</defs>
</svg>
